<svg xmlns="http://www.w3.org/2000/svg" width="158.684" height="25.13" viewBox="0 0 158.684 25.13">
  <g id="Layer_1" data-name="Layer 1" transform="translate(0 -1)">
    <path id="Path_27270" data-name="Path 27270" d="M70.993,332.432a13.024,13.024,0,0,1-4.4-.773,11.8,11.8,0,0,1-2.043-.977,2.054,2.054,0,0,1-.511-3.072,2.114,2.114,0,0,1,2.761-.446,10.868,10.868,0,0,0,1.379.769,6.9,6.9,0,0,0,2.913.61,3.334,3.334,0,0,0,1.856-.434,1.457,1.457,0,0,0,.664-1.287v-.055a1.8,1.8,0,0,0-.136-.745,1.691,1.691,0,0,0-.528-.556,6.467,6.467,0,0,0-1.138-.5,14.342,14.342,0,0,0-1.64-.5l-.271-.081a20.461,20.461,0,0,1-2.669-.8,6.974,6.974,0,0,1-2.06-1.111,4.579,4.579,0,0,1-1.3-1.613,5.7,5.7,0,0,1-.447-2.384v-.055a5.753,5.753,0,0,1,.474-2.358,5.287,5.287,0,0,1,1.423-1.857,6.817,6.817,0,0,1,2.209-1.233,9.2,9.2,0,0,1,2.8-.406,11.856,11.856,0,0,1,3.971.637,11.48,11.48,0,0,1,1.4.608,2.08,2.08,0,1,1-1.951,3.673,11.8,11.8,0,0,0-1.119-.541,6.06,6.06,0,0,0-2.358-.5,2.583,2.583,0,0,0-1.667.448,1.351,1.351,0,0,0-.583,1.138v.055a1.461,1.461,0,0,0,.2.813,1.485,1.485,0,0,0,.583.583,6.444,6.444,0,0,0,1.219.5q.529.163,1.247.352l.745.2a19.6,19.6,0,0,1,2.643.881,8.037,8.037,0,0,1,1.965,1.166,4.418,4.418,0,0,1,1.22,1.612,5.436,5.436,0,0,1,.393,2.168v.054a5.8,5.8,0,0,1-.529,2.521,5.05,5.05,0,0,1-1.463,1.884,6.794,6.794,0,0,1-2.3,1.192,10.019,10.019,0,0,1-2.954.42" transform="translate(-63.418 -306.41)" fill="#e40136"/>
    <path id="Path_27271" data-name="Path 27271" d="M114.3,325.168l-7.52-11.857h5.433l4.472,7.52,4.553-7.52h5.3l-7.52,11.776v7.819H114.3Z" transform="translate(-91.01 -306.884)" fill="#e40136"/>
    <path id="Path_27272" data-name="Path 27272" d="M172.072,333.061h-4.906l-5.664-13.93-4.079,10.027h2.344a1.951,1.951,0,0,1,0,3.9h-8.727l8.347-19.676H163.7Z" transform="translate(-119.17 -306.931)" fill="#e40136"/>
    <path id="Path_27273" data-name="Path 27273" d="M232.858,332.906h-5.407l-4.745-6.968a2.035,2.035,0,0,1,1.682-3.181q2.914,0,3.063-2.669,0-2.711-3.144-2.751h-4.024v15.57h-4.716V313.311h9.106a7.957,7.957,0,0,1,5.881,2.06,6.044,6.044,0,0,1,1.667,4.431q0,4.8-4.133,6.112Z" transform="translate(-160.225 -306.884)" fill="#e40136"/>
    <path id="Path_27274" data-name="Path 27274" d="M290.842,333.061h-4.906l-5.664-13.93-4.079,10.027h2.344a1.951,1.951,0,1,1,0,3.9h-8.727l8.347-19.676h4.309Z" transform="translate(-194.739 -306.931)" fill="#e40136"/>
    <path id="Path_27275" data-name="Path 27275" d="M350.673,333.112h-4.715l.106-8.534-7.518-.04v8.574h-4.689v-19.54h4.689v6.245l7.412,0v-6.247h4.715Z" transform="translate(-235.489 -307.05)" fill="#e40136"/>
    <text id="app" transform="translate(120.684 21)" fill="#e40136" font-size="21" font-family="Rockwell"><tspan x="0" y="0">app</tspan></text>
  </g>
</svg>
