<svg xmlns="http://www.w3.org/2000/svg" width="43.81" height="40" viewBox="0 0 43.81 40">
  <g id="img-def" transform="translate(-1 -1)">
    <g id="Group_29130" data-name="Group 29130" transform="translate(1 1)">
      <path id="Path_27441" data-name="Path 27441" d="M12.823,5.674A5.714,5.714,0,0,1,16.863,4h6.994a1.9,1.9,0,1,1,0,3.81H16.863a1.9,1.9,0,0,0-1.346.558L13.939,9.945A5.714,5.714,0,0,1,9.9,11.619H6.714a1.9,1.9,0,0,0-1.9,1.9V32.571a1.9,1.9,0,0,0,1.9,1.9H33.381a1.9,1.9,0,0,0,1.9-1.9V19.238a1.9,1.9,0,0,1,3.81,0V32.571a5.714,5.714,0,0,1-5.714,5.714H6.714A5.714,5.714,0,0,1,1,32.571V13.524A5.714,5.714,0,0,1,6.714,7.81H9.9a1.9,1.9,0,0,0,1.346-.558Z" transform="translate(-1 1.714)" fill="#545e69" fill-rule="evenodd"/>
      <path id="Path_27442" data-name="Path 27442" d="M6,23.048a9.524,9.524,0,1,1,9.524,9.524A9.524,9.524,0,0,1,6,23.048Zm9.524-5.714a5.714,5.714,0,1,0,5.714,5.714,5.714,5.714,0,0,0-5.714-5.714ZM25.048,5.9a1.9,1.9,0,0,1,1.9-1.9H38.381a1.9,1.9,0,1,1,0,3.81H26.952A1.9,1.9,0,0,1,25.048,5.9Z" transform="translate(3.524 1.714)" fill="#545e69" fill-rule="evenodd"/>
      <path id="Path_27443" data-name="Path 27443" d="M20.9,1a1.9,1.9,0,0,1,1.9,1.9V14.333a1.9,1.9,0,1,1-3.81,0V2.9A1.9,1.9,0,0,1,20.9,1Z" transform="translate(15.286 -1)" fill="#545e69" fill-rule="evenodd"/>
    </g>
  </g>
</svg>
