<svg xmlns="http://www.w3.org/2000/svg" width="20.81" height="20.83" viewBox="0 0 20.81 20.83">
  <path id="home" d="M17.78-1456.253v-.321c0-1.371,0-2.743,0-4.115,0-1.474-.693-2.489-2.173-2.49-.755,0-1.514-.026-2.264.043a2,2,0,0,0-1.727,2.218c-.029,1.445-.011,2.891-.014,4.336,0,.1,0,.209,0,.341H10.589c-.7,0-1.4,0-2.094,0a1.106,1.106,0,0,1-1.188-1.181c0-2.292-.014-4.583.007-6.874.006-.693-.221-1.013-.982-.963-.2.014-.411,0-.616,0A.721.721,0,0,1,5-1465.72a.7.7,0,0,1,.179-.812c.589-.6,1.184-1.186,1.776-1.778q3.554-3.554,7.109-7.107a.76.76,0,0,1,1.25-.006q4.392,4.388,8.782,8.779a.836.836,0,0,1,.328.777.728.728,0,0,1-.7.608c-.3.007-.591,0-.887,0a.668.668,0,0,0-.759.755q0,3.523,0,7.047a1.1,1.1,0,0,1-.911,1.194,1.426,1.426,0,0,1-.269.019c-.846,0-2.016,0-2.862,0C17.958-1456.241,17.885-1456.248,17.78-1456.253Z" transform="translate(-4.276 1476.421)" fill="none" stroke="#73848f" stroke-width="1.3"/>
</svg>
