<svg id="Group_21926" data-name="Group 21926" xmlns="http://www.w3.org/2000/svg" width="21.047" height="21.018" viewBox="0 0 21.047 21.018">
  <path id="Path_9304" data-name="Path 9304" d="M-2.588-1488.394v.315q0,2.939,0,5.878a2.277,2.277,0,0,1-2.419,2.411h-3.1c-.5,0-.73-.229-.731-.733q0-2.363,0-4.726A1.057,1.057,0,0,0-10-1486.4q-.882,0-1.763,0a1.044,1.044,0,0,0-1.132,1.146q0,2.339,0,4.679c0,.564-.22.786-.778.787-1.042,0-2.085,0-3.127,0a2.256,2.256,0,0,1-2.346-2.336q-.006-2.974,0-5.949v-.315c-.117,0-.216,0-.315,0a1.838,1.838,0,0,1-1.787-1.183,1.837,1.837,0,0,1,.418-2.125q3.139-3.161,6.3-6.3c.72-.72,1.472-1.412,2.152-2.169a2.1,2.1,0,0,1,3.006-.013q4.155,4.239,8.393,8.4a1.994,1.994,0,0,1-.31,3.124,3.586,3.586,0,0,1-.865.263A2.026,2.026,0,0,1-2.588-1488.394Zm-5.024,7.365c.1,0,.17.011.239.011q1.211,0,2.422,0a1.347,1.347,0,0,0,.257-.018,1.053,1.053,0,0,0,.869-1.14q0-3.362,0-6.724a.637.637,0,0,1,.724-.72c.282,0,.564,0,.846,0a.694.694,0,0,0,.672-.579.8.8,0,0,0-.313-.741q-4.191-4.187-8.38-8.376a.725.725,0,0,0-1.193.005q-3.393,3.389-6.783,6.781c-.565.565-1.133,1.128-1.695,1.7a.665.665,0,0,0-.171.774.688.688,0,0,0,.685.441c.2,0,.393.011.588,0,.726-.048.943.258.937.919-.02,2.186-.008,4.373-.007,6.559a1.055,1.055,0,0,0,1.133,1.127c.666,0,1.332,0,2,0h.657c0-.126,0-.226,0-.326,0-1.379-.015-2.759.013-4.137a2.162,2.162,0,0,1,1.957-2.116c.715-.066,1.44-.041,2.16-.041a2.269,2.269,0,0,1,2.383,2.376c0,1.309,0,2.618,0,3.926Z" transform="translate(21.416 1500.808)" fill="#fff"/>
  <path id="Path_9305" data-name="Path 9305" d="M17.78-1456.253v-.321c0-1.371,0-2.743,0-4.115,0-1.474-.693-2.489-2.173-2.49-.755,0-1.514-.026-2.264.043a2,2,0,0,0-1.727,2.218c-.029,1.445-.011,2.891-.014,4.336,0,.1,0,.209,0,.341H10.589c-.7,0-1.4,0-2.094,0a1.106,1.106,0,0,1-1.188-1.181c0-2.292-.014-4.583.007-6.874.006-.693-.221-1.013-.982-.963-.2.014-.411,0-.616,0A.721.721,0,0,1,5-1465.72a.7.7,0,0,1,.179-.812c.589-.6,1.184-1.186,1.776-1.778q3.554-3.554,7.109-7.107a.76.76,0,0,1,1.25-.006q4.392,4.388,8.782,8.779a.836.836,0,0,1,.328.777.728.728,0,0,1-.7.608c-.3.007-.591,0-.887,0a.668.668,0,0,0-.759.755q0,3.523,0,7.047a1.1,1.1,0,0,1-.911,1.194,1.426,1.426,0,0,1-.269.019c-.846,0-2.016,0-2.862,0C17.958-1456.241,17.885-1456.248,17.78-1456.253Z" transform="translate(-4.144 1476.479)" fill="none"/>
</svg>
