<svg xmlns="http://www.w3.org/2000/svg" width="24" height="31.75" viewBox="0 0 24 31.75">
  <g id="Group_29161" data-name="Group 29161" transform="translate(-175 -511.25)">
    <text id="KSA" transform="translate(187 540)" fill="#364854" font-size="12" font-family="Roboto-Regular, Roboto"><tspan x="-11" y="0">KSA</tspan></text>
    <g id="Group_29127" data-name="Group 29127" transform="translate(-148.051 415.942)">
      <g id="Group_29108" data-name="Group 29108" transform="translate(324.551 95.308)">
        <path id="Path_27407" data-name="Path 27407" d="M354.816,99.97a3.2,3.2,0,0,1,3.068,1.285,3.97,3.97,0,0,0-1.086-1.677,2.885,2.885,0,0,0-1.626-.755,3.121,3.121,0,0,1,2.493-.995,2.476,2.476,0,0,0-2.732-.324,2.592,2.592,0,0,1,1.219-1.386,2.779,2.779,0,0,0-2.163.592,2.172,2.172,0,0,1,.989-1.4,3.806,3.806,0,0,0-2.644,1.472,3.807,3.807,0,0,0-2.644-1.472,2.173,2.173,0,0,1,.989,1.4,2.779,2.779,0,0,0-2.163-.592,2.592,2.592,0,0,1,1.219,1.386,2.476,2.476,0,0,0-2.732.324,3.121,3.121,0,0,1,2.493.995,2.885,2.885,0,0,0-1.627.755,3.97,3.97,0,0,0-1.086,1.677,3.2,3.2,0,0,1,3.068-1.285,3.556,3.556,0,0,0-1.146,2.508,3.629,3.629,0,0,1,3.032-1.868l-.28,1.863h.159l-.261,2.061h.252l-.3,2.026h2.054l-.3-2.026h.252l-.261-2.061h.159l-.28-1.863a3.629,3.629,0,0,1,3.032,1.868A3.555,3.555,0,0,0,354.816,99.97Z" transform="translate(-343.583 -95.308)"/>
        <path id="Path_27408" data-name="Path 27408" d="M340.734,154.621a.816.816,0,1,0-1.618-.109.991.991,0,0,0,.021.283,8.721,8.721,0,0,1-2.7-.656c.013-.037.026-.074.037-.112.052-.161.094-.32.14-.462.019-.057.038-.112.06-.164a.3.3,0,0,0,.252.192.323.323,0,0,0,.326-.317.35.35,0,0,0-.111-.285h.005a.339.339,0,0,0-.105-.074.409.409,0,0,0-.13-.028.53.53,0,0,0-.267.064,1.086,1.086,0,0,0-.394.4,4.048,4.048,0,0,0-.234.463c-.017.038-.033.076-.049.114a12.69,12.69,0,0,1-1.9-1.128,32.639,32.639,0,0,0-5.158-3.424,5.932,5.932,0,0,0-2.19-.583,3.342,3.342,0,0,0-2.165.638c2.3-.457,5.321,1.091,9.2,4a11.029,11.029,0,0,0,1.957,1.178,4,4,0,0,1-.216.533c-.013.025-.027.05-.042.073a.352.352,0,0,0-.309-.286.368.368,0,0,0-.372.362.415.415,0,0,0,.084.283.48.48,0,0,0,.484.149.913.913,0,0,0,.475-.293,1.987,1.987,0,0,0,.3-.46c.025-.051.048-.1.071-.153a9.643,9.643,0,0,0,1.025.35,9.042,9.042,0,0,0,.91.205q.382.066.769.1c.187.014.374.023.561.022.095,0,.189,0,.284-.007a1.65,1.65,0,0,0,.271-.024.841.841,0,0,0,.655-.515A.993.993,0,0,0,340.734,154.621Z" transform="translate(-324.551 -141.097)"/>
        <path id="Path_27409" data-name="Path 27409" d="M333.688,154.621a.816.816,0,1,1,1.618-.109,1,1,0,0,1-.021.283,8.719,8.719,0,0,0,2.7-.656c-.012-.037-.025-.074-.037-.112-.052-.161-.094-.32-.14-.462-.019-.057-.038-.112-.06-.164a.3.3,0,0,1-.252.192.323.323,0,0,1-.326-.317.35.35,0,0,1,.111-.285h-.005a.338.338,0,0,1,.105-.074.407.407,0,0,1,.13-.028.529.529,0,0,1,.267.064,1.085,1.085,0,0,1,.394.4,4.074,4.074,0,0,1,.234.463c.017.038.033.076.049.114a12.7,12.7,0,0,0,1.9-1.128,32.652,32.652,0,0,1,5.158-3.424,5.932,5.932,0,0,1,2.19-.583,3.342,3.342,0,0,1,2.165.638c-2.3-.457-5.321,1.091-9.2,4a11.027,11.027,0,0,1-1.957,1.178,4.01,4.01,0,0,0,.216.533c.013.025.027.05.042.073a.352.352,0,0,1,.309-.286.368.368,0,0,1,.372.362.415.415,0,0,1-.084.283.48.48,0,0,1-.484.149.912.912,0,0,1-.475-.293,1.981,1.981,0,0,1-.3-.46c-.025-.051-.048-.1-.071-.153a9.652,9.652,0,0,1-1.025.35,9.053,9.053,0,0,1-.91.205q-.382.066-.769.1c-.187.014-.374.023-.561.022-.095,0-.189,0-.284-.007a1.648,1.648,0,0,1-.271-.024.841.841,0,0,1-.655-.515A.993.993,0,0,1,333.688,154.621Z" transform="translate(-332.371 -141.097)"/>
      </g>
    </g>
  </g>
</svg>
