<svg xmlns="http://www.w3.org/2000/svg" width="159" height="121.735" viewBox="0 0 189 141.735">
  <g id="nfc" transform="translate(-608.648 -308)">
    <path id="Path_27158" data-name="Path 27158" d="M797.648,408.019c-.478,3.515-.873,7.045-1.454,10.541a90,90,0,0,1-8.8,26.465c-2.179,4.25-6.7,5.852-10.713,3.86C772.7,446.9,771.2,442.269,773.337,438a77.3,77.3,0,0,0,8.455-38.273c-.9-22.334-9.688-41.093-26.3-55.963-16.211-14.51-35.473-21.4-57.141-19.76-30.508,2.3-53.034,17.507-66.341,45.023-10.994,22.738-10.235,45.93.848,68.623,2.909,5.961-.981,12.242-7.011,12.044a7.757,7.757,0,0,1-6.971-4.674,91.255,91.255,0,0,1-9.4-30.291c-2.889-23.024,1.726-44.485,14.579-63.831,15.826-23.818,38.125-37.79,66.444-42.074,2.238-.34,4.5-.552,6.745-.828h11.813a10.262,10.262,0,0,0,1.42.3,90.028,90.028,0,0,1,40.556,12.789c24.666,14.993,39.856,36.666,45.175,65.113.641,3.426.966,6.912,1.44,10.368Z" fill="#89a0af" opacity="0.26"/>
  </g>
</svg>
