<svg xmlns="http://www.w3.org/2000/svg" width="44.668" height="43" viewBox="0 0 44.668 43">
  <path id="oil-tank" d="M43.919,10.3,36.381,2.524a1.462,1.462,0,0,0-2.1,0L33.226,3.608a1.575,1.575,0,0,0,0,2.169L36.735,9.4v5.96a5.314,5.314,0,0,0,4.467,5.3V36.084a2.234,2.234,0,1,1-4.467,0V33.013a8.32,8.32,0,0,0-8.189-8.445H27.8V6.142A6.057,6.057,0,0,0,21.845,0H6.956A6.057,6.057,0,0,0,1,6.142v33.78H27.8V29.174h.744a3.781,3.781,0,0,1,3.722,3.839v2.668c0,3.618,2.513,6.91,6,7.284a6.8,6.8,0,0,0,7.4-6.881V14.645A6.252,6.252,0,0,0,43.919,10.3ZM21.845,18.426H6.956V6.142H21.845Z" transform="translate(-1)" fill="#89a0af"/>
</svg>
