<svg id="operation" xmlns="http://www.w3.org/2000/svg" width="19.667" height="19.667" viewBox="0 0 19.667 19.667">
  <path id="Path_27463" data-name="Path 27463" d="M45.407,26.536l.968-1.063a.284.284,0,0,0-.009-.393l-1.68-1.68a.284.284,0,0,0-.393-.009l-1.062.968a.789.789,0,0,1-.927.108,7.638,7.638,0,0,0-1.613-.669.789.789,0,0,1-.579-.732l-.067-1.435a.284.284,0,0,0-.284-.271H37.386a.284.284,0,0,0-.284.271l-.067,1.435a.789.789,0,0,1-.579.732,7.642,7.642,0,0,0-1.613.669.79.79,0,0,1-.928-.108l-1.062-.968a.285.285,0,0,0-.393.009l-1.68,1.68a.284.284,0,0,0-.009.393l.968,1.062a.789.789,0,0,1,.108.927,7.651,7.651,0,0,0-.669,1.613.789.789,0,0,1-.732.579l-1.435.067a.284.284,0,0,0-.271.284v2.375a.284.284,0,0,0,.271.284l1.435.067a.79.79,0,0,1,.732.579,7.661,7.661,0,0,0,.669,1.613.789.789,0,0,1-.108.927l-.968,1.062a.284.284,0,0,0,.009.393l1.513,1.512a4.8,4.8,0,0,1,.875-1.987,4.912,4.912,0,0,1,1.539-1.346,5.778,5.778,0,1,1,7.733,0,4.912,4.912,0,0,1,1.539,1.346,4.8,4.8,0,0,1,.875,1.987l1.513-1.513a.284.284,0,0,0,.009-.393l-.968-1.062a.789.789,0,0,1-.108-.927,7.657,7.657,0,0,0,.669-1.613.789.789,0,0,1,.732-.579l1.435-.067a.284.284,0,0,0,.271-.284V30a.284.284,0,0,0-.271-.284L46.7,29.656a.79.79,0,0,1-.732-.579,7.657,7.657,0,0,0-.669-1.613A.789.789,0,0,1,45.407,26.536Zm-3.823,9.121a4.318,4.318,0,0,1,2.839,4.066v1.3h-2V39.582a.258.258,0,1,0-.515,0v1.445H35.239V39.582a.258.258,0,1,0-.515,0v1.445h-2v-1.3a4.317,4.317,0,0,1,2.839-4.066l2.79,4.614a.258.258,0,0,0,.441,0ZM39.5,35.391l-.563.787a.256.256,0,0,0-.045.189l.339,2.176-.663,1.1-.663-1.1.34-2.174a.258.258,0,0,0-.045-.19l-.564-.789H39.5Zm.922-2.743a1.992,1.992,0,0,1-3.706,0A2.734,2.734,0,0,1,37,29.912a2.346,2.346,0,0,1,3.144,0A2.734,2.734,0,0,1,40.426,32.647Z" transform="translate(-28.74 -21.36)" fill="#fff" fill-rule="evenodd"/>
</svg>
