<svg xmlns="http://www.w3.org/2000/svg" width="21.313" height="21.313" viewBox="0 0 21.313 21.313">
  <g id="orders-gray" transform="translate(5892.661 14839.662)">
    <path id="Path_9312" data-name="Path 9312" d="M-1016.245-1479.495a10.67,10.67,0,0,1-10.645-10.662,10.669,10.669,0,0,1,10.655-10.651,10.583,10.583,0,0,1,7.537,3.129,10.591,10.591,0,0,1,3.122,7.546,10.67,10.67,0,0,1-10.658,10.639Zm.012-20a9.35,9.35,0,0,0-9.339,9.332,9.352,9.352,0,0,0,9.325,9.346h.015a9.352,9.352,0,0,0,9.338-9.318,9.352,9.352,0,0,0-9.311-9.359Z" transform="translate(-4865.771 -13338.854)" fill="#73848f"/>
    <path id="Path_9313" data-name="Path 9313" d="M-900.409-1243.932a.679.679,0,0,1-.363-.11.618.618,0,0,1-.282-.407.725.725,0,0,1,.106-.525c.151-.242.312-.481.482-.734l.242-.362.113-.171h-7.915a.74.74,0,0,1-.663-.352.627.627,0,0,1,.024-.646.663.663,0,0,1,.62-.32h6.249q1.391,0,2.783,0a.708.708,0,0,1,.711.35.684.684,0,0,1-.094.783q-.342.508-.68,1.017c-.251.377-.511.767-.769,1.149A.681.681,0,0,1-900.409-1243.932Z" transform="translate(-4978.514 -13580.567)" fill="#73848f"/>
    <path id="Path_9314" data-name="Path 9314" d="M-898.934-1362.118q-1.8,0-3.6,0h-4.593q-.421,0-.841,0h-.009a.676.676,0,0,1-.653-.342.645.645,0,0,1,.057-.736l.468-.7c.339-.51.69-1.038,1.041-1.554a.643.643,0,0,1,.534-.293.691.691,0,0,1,.359.1.649.649,0,0,1,.213.882c-.151.256-.319.506-.5.771-.082.122-.166.248-.253.38l-.111.17h4.522l3.407,0a.719.719,0,0,1,.641.344.628.628,0,0,1-.017.645.69.69,0,0,1-.669.33Z" transform="translate(-4978.565 -13467.765)" fill="#73848f"/>
  </g>
</svg>
