<svg id="partner" xmlns="http://www.w3.org/2000/svg" width="18.162" height="19.667" viewBox="0 0 18.162 19.667">
  <path id="Path_27464" data-name="Path 27464" d="M27.736,2.25h0L28.667,0,29.6,2.25l2.242.25L30.173,4.02l.455,2.21L28.667,5.115,26.706,6.23l.455-2.21L25.494,2.5ZM22.984,16.728a.618.618,0,0,1-.253-.836l.6-1.126a.617.617,0,1,1,1.089.582l-.6,1.128a.618.618,0,0,1-.835.252Zm12.19-2.979a1.3,1.3,0,0,0-.366-.311l-3.28-1.87a1.743,1.743,0,0,0-.883-.228,4.943,4.943,0,0,0-1.765.479c-1.112.45-2.084.844-2.993-.148a11.644,11.644,0,0,0,2.241-1.728,5.759,5.759,0,0,1,.807-.687,2.725,2.725,0,0,1,3.025-.173,2.2,2.2,0,0,0,1.948.167l1.342-.718,1.725,4.449Zm-.446,1.105a.628.628,0,0,0-.248-.841l-3.28-1.87c-.564-.321-1.263-.038-2.072.29-1.216.492-2.729,1.1-4.008-.658a.331.331,0,0,1,.1-.482,11.364,11.364,0,0,0,2.433-1.817q.241-.244.5-.463a2.827,2.827,0,0,0-1.99-.032,2.529,2.529,0,0,1-1.93-.065l-1.869-.862-1.992,4.239.11.049c.558.251,1.6.719,1.786.793a1.216,1.216,0,0,1,.675,1.039,1.278,1.278,0,0,1,2.15.509,1.3,1.3,0,0,1,.05.248,1.276,1.276,0,0,1,1.5.876c.006.021.012.043.018.064l.061-.02a1.276,1.276,0,0,1,1.593.851c.006.021.012.043.018.064l.062-.02a1.278,1.278,0,0,1,1.352.4l1.439.8a.617.617,0,1,0,.592-1.083l-2.025-1.14a.331.331,0,1,1,.325-.577l2.562,1.431a.618.618,0,1,0,.592-1.084l-2.024-1.145a.331.331,0,0,1,.326-.577L33.892,15.1a.628.628,0,0,0,.835-.245Zm-3.881,4.36a.619.619,0,0,1-.839.244l-.448-.247.341-.638a1.269,1.269,0,0,0,.147-.5l.551.3,0,0a.62.62,0,0,1,.244.839Zm-2.472.426a.617.617,0,0,1-.723-.881l.578-1.08a.618.618,0,0,1,1.089.583l-.577,1.08a.613.613,0,0,1-.366.3Zm-1.755-.74a.616.616,0,0,1-.723-.881l.66-1.234h0a.618.618,0,0,1,1.089.582l-.66,1.234A.613.613,0,0,1,26.619,18.9Zm-1.829-.6a.613.613,0,0,0,.366-.3l.816-1.526a.625.625,0,0,0-.253-.835.638.638,0,0,0-.835.25l-.818,1.529a.616.616,0,0,0,.723.881ZM36.442,5.27h0L36.8,7l-1.537-.875L33.724,7l.357-1.732L32.774,4.079l1.758-.2.73-1.611.73,1.611,1.758.2ZM19.586,4.079l1.758-.2.73-1.611.73,1.611,1.757.2L23.254,5.27,23.61,7l-1.537-.875L20.536,7l.357-1.732Z" transform="translate(-19.586)" fill="#364854" fill-rule="evenodd"/>
</svg>
