<svg xmlns="http://www.w3.org/2000/svg" xmlns:xlink="http://www.w3.org/1999/xlink" width="38" height="38" viewBox="0 0 38 38">
  <defs>
    <clipPath id="clip-path">
      <path id="Path_27293" data-name="Path 27293" d="M0-682.665H38v38H0Z" transform="translate(0 682.665)" fill="#545e69"/>
    </clipPath>
  </defs>
  <g id="profile" transform="translate(0 0)">
    <g id="Group_28964" data-name="Group 28964" clip-path="url(#clip-path)">
      <path id="Path_27289" data-name="Path 27289" d="M-100.729-201.458a5.944,5.944,0,0,1-5.937-5.937,5.944,5.944,0,0,1,5.937-5.937,5.944,5.944,0,0,1,5.937,5.937A5.944,5.944,0,0,1-100.729-201.458Z" transform="translate(119.729 221.942)" fill="none" stroke="#545e69" stroke-linecap="round" stroke-linejoin="round" stroke-width="2"/>
      <path id="Path_27290" data-name="Path 27290" d="M0-171.2c0-.01,0-.019,0-.029a11.133,11.133,0,0,1,11.082-10.063,11.134,11.134,0,0,1,11.082,10.062" transform="translate(7.915 204.746)" fill="none" stroke="#545e69" stroke-linecap="round" stroke-linejoin="round" stroke-width="2"/>
      <path id="Path_27291" data-name="Path 27291" d="M-25.182-12.591a.742.742,0,0,1-.742.742.742.742,0,0,1-.742-.742.742.742,0,0,1,.742-.742.742.742,0,0,1,.742.742" transform="translate(58.581 19.419)" fill="#545e69"/>
      <path id="Path_27292" data-name="Path 27292" d="M-574.685-149.089a18.185,18.185,0,0,1,2.641,9.47A18.22,18.22,0,0,1-579.22-125.1h0a18.182,18.182,0,0,1-11.082,3.742,18.181,18.181,0,0,1-11.081-3.742,18.221,18.221,0,0,1-7.176-14.516A18.248,18.248,0,0,1-590.3-157.877a18.185,18.185,0,0,1,11.2,3.83" transform="translate(609.302 158.619)" fill="none" stroke="#545e69" stroke-linecap="round" stroke-linejoin="round" stroke-width="2"/>
    </g>
  </g>
</svg>
