<svg xmlns="http://www.w3.org/2000/svg" width="23.022" height="24.667" viewBox="0 0 23.022 24.667">
  <g id="gas-stashion" transform="translate(-3.667 -1.833)">
    <path id="Path_27460" data-name="Path 27460" d="M26.327,9.183l-.461-.461V6.355a.411.411,0,0,0-.411-.411H23.088l-.872-.872a1.225,1.225,0,0,0-.872-.361H18.878V4.3a2.469,2.469,0,0,0-2.467-2.467H7.367A2.469,2.469,0,0,0,4.9,4.3V22.389H4.078a.411.411,0,0,0-.411.411v3.289a.411.411,0,0,0,.411.411H20.111v-.822H4.489V23.211H18.466a.411.411,0,0,0,.411-.411V16.222h.411a.412.412,0,0,1,.411.411v6.372a3.494,3.494,0,1,0,6.989,0V10.055a1.225,1.225,0,0,0-.361-.872Zm-4.692-3.53.993.993a.411.411,0,0,0,.291.12h2.126V8.893a.411.411,0,0,0,.12.291l.581.581a.409.409,0,0,1,.12.291v4.933h-.822V10.4a.411.411,0,0,0-.12-.291L23.761,8.943a.411.411,0,0,0-.291-.12H21.347c0-1.119,0-2.056,0-2.056a.411.411,0,0,0-.411-.41h-.411V5.533h.822a.408.408,0,0,1,.291.12Zm-2.346,8.1h-.411V7.178h1.645c0,.454,0,4.322,0,4.929a1.644,1.644,0,0,0,1.644,1.648h2.054v9.25a1.028,1.028,0,1,1-2.056,0V16.633a2.881,2.881,0,0,0-2.878-2.878ZM23.3,9.644l.922.922v.722H22.989V9.644Zm-.722,2.467h1.644v.822H22.168a.822.822,0,0,1-.822-.824c0-.507,0-1.681,0-2.465h.819V11.7A.411.411,0,0,0,22.578,12.111ZM19.7,5.533v.822h-.822V5.533ZM5.722,22.389V4.3A1.646,1.646,0,0,1,7.367,2.656h9.044A1.646,1.646,0,0,1,18.055,4.3V22.389Zm20.144.617a2.672,2.672,0,1,1-5.344,0V16.633A1.235,1.235,0,0,0,19.289,15.4h-.411v-.822h.411a2.058,2.058,0,0,1,2.056,2.056v6.372a1.85,1.85,0,1,0,3.7,0V15.811h.822Z" fill="#364854"/>
    <path id="Path_27461" data-name="Path 27461" d="M20.455,7.333H11.411A.411.411,0,0,0,11,7.744v6.578a.411.411,0,0,0,.411.411h9.044a.411.411,0,0,0,.411-.411V7.744A.411.411,0,0,0,20.455,7.333Zm-.411,6.578H11.822V8.156h8.222Z" transform="translate(-4.044 -3.033)" fill="#364854"/>
    <path id="Path_27462" data-name="Path 27462" d="M15.583,14.667h.822v.822h-.822Zm1.644,0h.822v.822h-.822Zm1.645,0h.822v.822h-.822Zm1.644,0h.822v.822h-.822ZM16.568,26.784a2.244,2.244,0,0,0,3.926-2.154l-1.661-3.559a.411.411,0,0,0-.745,0l-1.661,3.559a2.233,2.233,0,0,0,.141,2.154Zm.6-1.807,1.288-2.761,1.288,2.761a1.422,1.422,0,1,1-2.577,0Z" transform="translate(-6.572 -7.078)" fill="#364854"/>
  </g>
</svg>
