<svg enable-background="new 0 0 303.1 303.1" height="303.1" viewBox="0 0 303.1 303.1" width="303.1" xmlns="http://www.w3.org/2000/svg"><path d="m241 152.8c-13.3-17.5-29.9-34.7-49.3-50.5-47.5-39-103.9-64.1-149.4-67-1.1.6-2.3 1.2-3.4 1.9-8.4 4.7-16.2 10.1-23.3 16.1s-.9.7-1.2 1h.1l14.3-1.4 5.9-.6c2.4-.2 9.2-.8 13.4-.8 46.5 0 106.6 25.6 156.8 66.8 5.8 4.7 11.3 9.6 16.6 14.5 7 6.5 13.5 13.2 19.5 20m16.9-92.6c-3.9-3.4-8-6.6-12.3-9.8 18.6 17.3 31.7 38.1 37.6 60.5 7.4 28.3 2.8 57.2-13.1 82.1-.6 1-1.2 1.9-1.9 2.8-.4.6-.7 1.1-1.1 1.7-.1.2-.2.3-.4.5.3.5.6 1 .8 1.6.1.1.1.3.2.4 0 0 1.3-1.8 1.5-2.1l.9 2.3c-.1.1-1.2 1.6-1.5 2 .3.8.8 2.4.8 2.4.2.7.5 1.4.7 2.1 8.5 28.1 3.9 51.1-13.2 65.3-11.4 9.5-28.2 14.5-48.4 14.5-23.7 0-51.7-6.8-80.4-19.3-1.8-.1-3.7-.2-5.5-.3-3.7-.2-7.5-.6-11.2-1.1 0 0-5.2-.6-5.2-.6l14.3 7.9 5.7 2.9c.1 0 .1.1.2.1l.2.1c34.1 17.2 68.3 26.6 96.4 26.6 20.7 0 37.9-5.2 49.7-14.9 18.8-15.6 23.1-41.3 12.2-72.6s-.2-.7-.3-.8l-.8-2.4c34.1-49 21.6-110.3-25.9-151.9" fill="#009584"/><path d="m266.7 198.1c0-.1 0-.1 0 0z" fill="#00888b"/><path d="m255.3 176.4c24.8-54.4-4-115.9-68.6-146.2-23.8-11.1-50.6-17-77.5-17-32.6 0-64.3 8.7-89.4 24.4l-.4.2-.4.1c4.6-.6 9.5-1 14.7-1 46.5 0 106.6 25.6 156.8 66.8 27.7 22.8 50 48.2 64.4 73.5.1-.2.3-.5.4-.8m14.7 23.9c-.1.1-.2.2-.3.4l-.4.5c-28.1 38.7-79.2 61.8-136.7 61.8-6.9 0-13.8-.3-20.7-1h-.4c34.2 17.3 68.5 26.8 96.8 26.8 20.7 0 37.9-5.2 49.7-14.9 19.1-15.9 23.3-41.9 12-73.6" fill="#82c55b"/><path d="m202.7 19.3c-68.6-32.4-151.9-22.8-201.5 19.5s-.9.7-1.2 1h.1l14.9-1.5c.7-.5 3.7-2.4 3.8-2.4 46.3-29 113-33.6 168.8-7.4 66.1 31 94.3 94.6 69.6 148.8-2.7 5.8-5.9 11.5-9.8 17.1-30.6 43.6-91.1 64.7-150.5 57.3 0 0-5.2-.6-5.2-.6l14.7 8.1c.3.2 12.2 1.3 15.3 1.5.5 0 .9.1.9.1 58.3 2.9 115-18.9 145.3-60.7.3-.4.6-.8.9-1.3 43.2-61.5 13.7-141.8-66.1-179.5" fill="#c7db49"/><path d="m158.1 200c0-11.8 4.9-13.3 9.2-13.3s9.2 1.5 9.2 13.2c0 11.9-5.2 13.2-9.1 13.2-2.9 0-5.2-.9-6.6-2.6-1.9-2.4-2.7-5.2-2.7-10.5m-11.1-.1c0 13.5 8 22.2 20.5 22.2 12.4 0 20.1-8.5 20.1-22.3 0-13.6-7.8-22.1-20.3-22.1s-20.3 8.5-20.3 22.2m-35.9-.2c0 13.6 7.9 21.7 21 21.7h.3c9.2 0 13.6-3.5 13.6-3.5-1.9-4.7-5.1-7.7-5.1-7.7-2.2 1.1-5 2.1-8 2.2-6.9-.1-10.7-4.7-10.7-13 0-5.7 1.8-12.5 10.5-12.6 3.1 0 5.9 1 8.2 2.2 3.8-3.9 5.1-7.7 5.1-7.7-5.5-3.8-13.6-3.5-13.6-3.5-13.2.2-21.3 8.6-21.3 21.9m-30.8 9.2s-2.9 2.8-4.8 7.9c6.8 5.4 16.5 4.7 16.5 4.7 9.8-.3 15.9-5.7 15.6-13.7-.1-2.9-1.3-5.9-3.1-8-1.5-1.6-3.2-2.8-6.9-4.6l-3.3-1.6c-2.1-1-3.1-1.5-3.7-2-.7-.5-1-1.2-1.1-2.1 0-.8-.1-2.5 3.4-2.8 3.8-.1 7.3 1.4 9.8 2.8 0 0 3.3-3.3 4.9-7.9-7-4.8-15.3-3.9-15.3-3.9-8.8.7-14.3 5.9-14 13.4.1 3.5 1.3 6.2 3.6 8.2 1.6 1.4 3 2.3 6.4 4l5.2 2.5c2.5 1.1 2.9 2.4 2.9 3.3.1 2.7-3 3.2-4.9 3.3-4.6.2-8.7-1.9-11.2-3.5m-32.2-.2c0-2.5.3-3.8 6.7-5.9l5.6-1.9v8.2c0 1.7-.1 1.7-1.1 2.2-1.7.7-3.8 1.1-5.8 1.1-5.4 0-5.4-2.5-5.4-3.7m-11.1.3c0 6 4.3 12.4 16.4 12.4 13.1 0 17.7-5.6 17.7-10.4v-21c0-4.6-1.9-12.3-14.6-12.3 0 0-9.7-.7-17 5.2 0 0 1.6 4.2 5.1 7.7.4-.2.7-.5 1.2-.8s1.1-.6 1.6-.9c.9-.4 1.8-.9 2.8-1.2 1.6-.6 3.5-1 5.4-1 4.7 0 4.7 1.8 4.7 3v1.9c-.1.1-.3.2-1 .5l-5.6 1.8c-4.3 1.4-8.4 3.3-11.1 5-3.5 2.4-5.6 6-5.6 10.1m-31.6-.1s-2.9 2.8-4.8 7.9c6.8 5.4 16.5 4.7 16.5 4.7 9.8-.3 15.9-5.7 15.6-13.7-.1-2.9-1.3-5.9-3.1-8-1.5-1.6-3.2-2.8-6.9-4.6l-3.3-1.6c-2.1-1-3.1-1.5-3.7-2-.7-.5-1-1.2-1.1-2.1 0-.8-.1-2.5 3.4-2.8 3.8-.1 7.3 1.4 9.8 2.8 0 0 3.3-3.3 4.9-7.9-7-4.8-15.3-3.9-15.3-3.9-8.8.7-14.3 5.9-14 13.4.1 3.5 1.3 6.2 3.6 8.2 1.6 1.4 3 2.3 6.4 4l5.2 2.5c2.5 1.1 2.9 2.4 2.9 3.3.1 2.7-3 3.2-4.9 3.3-4.6.2-8.7-1.9-11.2-3.5m15.2-60.4h-7.1c-2.9 0-3.9-3.8-3.9-6.4 0-1.6.1-3.3.6-4.6.8-2.7 2.6-3.5 2.6-3.5.7-.3 1.6-.5 3-.6h.2.5c.6 0 1.3.1 1.9.2.4.1.8.2 1.2.3.5.2.7.4.9.7.1.2.1.5.1 1.1v7.4zm100.7-2.2v-20.4c-.3 0-.6 0-.9 0h-.8c-.3 0-.5 0-.8 0-.7.1-1.5.2-2.3.3-1.5.3-2.9.7-4.2 1.2-.1 0-.3.1-.4.1v17.5c0 2.4-.8 3.3-3.1 3.4-.1 0-.2 0-.3 0-.5 0-1 0-1.5-.1-1.5-.3-2.1-1.3-2.1-3.3v-19.2c-.3 0-.6 0-.9 0h-.8c-.3 0-.5 0-.8 0-.5 0-1.1.1-1.6.2-.2 0-.5.1-.7.1-.1 0-.2.1-.4.1-1.3.3-2.6.7-3.8 1.2-.1 0-.3.1-.4.1v17.5c0 2-.6 3-2.1 3.3-.5.1-1 .1-1.5.1-2.5 0-3.4-.9-3.4-3.4v-19.2c-.3 0-.6 0-.9 0h-.8c-.3 0-.5 0-.8 0-.8.1-1.5.2-2.4.3-.1 0-.2.1-.3.1-1.3.3-2.6.7-3.8 1.2-.1 0-.4.2-.4.2v18.2c-.1 1.4-.6 2.2-1.8 2.5-.6.1-1.3.2-1.9.2h-3c0-2 0-5.4 0-5.4 0-8.7-4.4-13.3-12.7-13.3h-13.1c.2-1.4 3-4.2 7.2-5 1.9-.3 3.7-.3 5.4 0 1.1.2 2.1.4 3 .7l1.8.6c.5.2.9.4 1.3.5.2-.3.3-.5.5-.8.4-.6.8-1.3 1.1-1.9.1-.1.1-.2.2-.3.3-.6.5-1.1.8-1.7.1-.3.2-.6.3-.9.3-.7.5-1.5.7-2.2 0 0 .1-.4.1-.5-.1 0-.6-.3-.8-.4-1.2-.6-2.4-1-3.4-1.3-1.2-.4-3.3-1-6.2-1.1-.3 0-.6 0-.9 0-.1 0-.2 0-.3 0-1.6 0-3.4.2-5.4.5-.1 0-.2 0-.2 0-.1 0-.2 0-.4.1-9.5 1.7-13.7 10.2-14.2 13.8v.2c0 .3-.1.8-.2 1.4-.2 1.4-.3 3.5-.2 4.8 0 .2 0 .4.1.6 0 .1.1.2.1.3.4.9 1.1 1.6 2.3 1.6h19.8c2.2 0 3.4.7 3.4 4.4v5.2h-32.3v-13.3c0-1.2-.3-2.7-.9-4.1-.2-.5-.5-1-.9-1.5-.5-.7-1.2-1.4-2.2-2-.5-.3-1.2-.6-1.8-.9-.5-.2-1.6-.5-1.7-.5-1.7-.4-3.6-.7-5.8-.7h-1.2c-2 .1-3.7.3-5.2.6-3 .6-5.4 2-7.2 4.2-2.2 2.8-3.3 6.7-3.3 11.7 0 4.6 1.3 8.1 3.3 10.5 2.7 3.3 6.5 4.8 10 4.8h7.3v1.5c0 1.6-1.6 2.6-4.3 2.6h-5.2v.1c-.5 1.2-.9 2.6-1.1 3.9-.2 1.1-.3 2.2-.4 3.2v.1.8.9h7.3c5.3-.1 9.5-2.2 11.6-5.6.7-1 1.1-2.2 1.4-3.5.1-.7.2-1.5.2-2.3v-1.6h43.9c2.9 0 6.1-.8 8.8-2.3 2 1.5 4.6 2.4 7.8 2.4 3.1 0 6.7-1 9.5-2.6 2.8 1.7 6.3 2.6 9.5 2.6 7.1 0 11.7-4.3 11.7-11.1m66.3 0v-20.4c-.3 0-.6 0-.9 0h-.8c-.3 0-.5 0-.8 0-.8.1-1.5.2-2.4.3-1.5.3-2.9.7-4.2 1.2-.1 0-.3.1-.4.1v17.5c0 2.4-.8 3.3-3.1 3.4-.1 0-.2 0-.3 0-.5 0-1 0-1.5-.1-1.5-.3-2.1-1.3-2.1-3.3v-19.2c-.3 0-.6 0-.9 0h-.8c-.3 0-.5 0-.8 0-.5 0-1.1.1-1.6.2-.2 0-.5.1-.7.1-.1 0-.2.1-.4.1-1.3.3-2.6.7-3.8 1.2-.1 0-.3.1-.4.1v17.5c0 2-.6 3-2.1 3.3-.5.1-1 .1-1.5.1-2.5 0-3.4-.9-3.4-3.4v-19.2c-.3 0-.6 0-.9 0h-.8c-.3 0-.5 0-.8 0-.8.1-1.5.2-2.4.3-.1 0-.2.1-.3.1-1.3.3-2.6.7-3.8 1.2-.1 0-.4.2-.4.2v18.2c-.1 1.4-.6 2.2-1.8 2.5-.6.1-1.3.2-1.9.2-.1 0-.1 0-.2 0-2.4 0-3.2-.9-3.2-3.4v-25-4.5c-.3 0-.6 0-.9 0h-.8c-.3 0-.5 0-.8 0-.7.1-1.5.2-2.3.3-1.5.3-2.9.7-4.2 1.2-.1.1-.3.1-.4.2v29 .1c0 6.7 4.6 11.1 11.7 11.1 2.9 0 6.1-.9 8.8-2.4 2 1.5 4.6 2.4 7.8 2.4 3.1 0 6.7-1 9.5-2.6 2.8 1.7 6.4 2.6 9.5 2.6 6.9-.1 11.5-4.4 11.5-11.2" fill="#00b7b2"/></svg>