<svg xmlns="http://www.w3.org/2000/svg" width="520.667" height="427.739" viewBox="0 0 520.667 427.739">
  <g id="splash" transform="translate(193.869 -236)">
    <g id="Group_28914" data-name="Group 28914" transform="translate(-193.869 236)">
      <path id="Path_26846" data-name="Path 26846" d="M-5.19,586.217v51.05H142.631c-.948-1.306-1.9-2.587-3-4.073,1.665-1.23,3.048-2.254,4.559-3.355,1.1,1.563,2.152,3.074,3.33,4.739-1.358.9-2.664,1.742-4.073,2.664h17.341c-.077-.1-.154-.2-.256-.333,1.639-1.127,3-2.075,4.559-3.151.871,1.153,1.742,2.305,2.638,3.484h17.828c.282-.2.538-.384.82-.615.154.2.307.41.435.615h64.856c-1.614-2.28-3.279-4.662-4.816-6.839,2.459-1.819,5.353-3.945,7.915-5.84,1.844,2.587,4.124,5.814,6.019,8.478-2.049,1.229-4.534,2.741-6.967,4.2h15.958c-.794-1.076-1.562-2.126-2.228-3.048,2.69-1.972,6.071-4.431,8.914-6.506,1.434,2.408,3.356,5.661,5.123,8.606-.41.307-.845.64-1.281.948h9.81c2.741-2.177,5.379-4.278,7.787-6.2a12.833,12.833,0,0,0,2.587,6.2h15.164a9.508,9.508,0,0,0,2.126-3.612c1.409-4.534-.359-9.913-4.662-11.757a13.481,13.481,0,0,0-8.376-.743c-2.485.692-4.457,3.176-6.762,4.943-.794-5.328-3.765-9.068-9.426-9.734s-9.272,2.561-11.655,7.941c-.564-6.327-1.562-7.915-7.146-11.86,7.044-1.87,10.246-4.943,10.656-10.22.359-4.406-2.408-9.3-6.762-10.4a14.348,14.348,0,0,0-8.376.435c-2.382.974-4.1,3.561-5.994,5.354-.589-5.1-1.716-6.814-7.044-10.425.82-.179,1.537-.333,2.254-.512,4.764-1.357,7.966-4.892,8.427-9.3.461-4.559-2.152-8.811-6.711-10.963-.564-.256-1.1-.589-1.639-.871l.128.077c-5.763-.359-10.169,1.691-12.833,7.966-.256-5.686-2.587-9.17-7.838-11.68,6.224-.564,9.58-3.74,11.45-8.658l-.1.154c.384-5.277-1.229-9.58-6.224-11.988-5.4-2.613-10.528-.435-14.293,5.379-1.716-3-3.612-6.327-5.558-9.759,3.817-.9,6.609-3.586,8.3-7.556.692-6.4-1.767-11.014-6.89-12.833-5.379-1.921-9.759.154-14.139,6.865,0-5.379-2.766-8.837-7.505-11.3,1.178-.307,1.921-.487,2.638-.666,5.174-1.383,8.53-5.507,8.4-10.4a10.522,10.522,0,0,0-8.4-10.015c-4.713-1.076-9.17,1.2-11.655,5.866a15.057,15.057,0,0,1-1.716,2.152,9.993,9.993,0,0,0-6.25-11.475c-5.379-2.177-10.271,0-14.165,6.148-.717-1.9-1.127-4.226-2.357-6.019-1.281-1.844-3.33-3.176-5.149-4.841.9-.2,1.742-.384,2.587-.615a10.329,10.329,0,0,0-.359-20.21c-4.79-1.024-9.272,1.306-11.578,5.917a17.8,17.8,0,0,1-1.46,2.254c.256-5.891-2.049-10.374-6.865-11.578a15.691,15.691,0,0,0-8.4.589c-2.561.871-4.713,3-5.994,3.842-.256-3.074-2.382-7.018-7.582-8.632-5.533-1.716-9.426.9-12.807,5.328-1.358-5.482-4.38-9.119-9.862-9.631a10.39,10.39,0,0,0-10.861,6.378c-1.87-3.1-3.919-6.532-5.917-9.862,5.968-2.2,8.888-5.814,8.555-10.989a10.319,10.319,0,0,0-7.684-9.375c-4.559-1.127-9.58.589-11.4,4.764a13.7,13.7,0,0,0-.871,8.376c.64,2.485,3.048,4.534,4.124,6.019-2.971,2.357-6.071,4.79-8.427,6.634-1.793-2.818-3.842-6.1-5.866-9.272,6.019-2,9.016-5.712,8.683-10.989a10.3,10.3,0,0,0-19.544-3.842c-2.382,4.918-.82,9.554,4.047,13.524-3.1,2.433-6.327,4.995-9.272,7.326-.692-4.585-3.612-8.581-9.4-9.324-5.61-.717-9.349,2.331-11.885,7.864-.487-6.3-3.176-10.425-8.939-11.5-5.917-1.1-9.785,2.1-12.4,7.684C.8,442.34.727,441.571.548,440.854a11.039,11.039,0,0,0-5.61-7.71v18.8a10.441,10.441,0,0,0,5.174-5.686c1.716,3.125,3.586,6.557,5.225,9.554-2.331,1.767-5.251,3.97-7.812,5.917-.794-1.05-1.665-2.2-2.587-3.407v12.013c.564-.461,1.127-.9,1.691-1.358,1.486,2.28,3.3,5.123,5.046,7.838-2.152,1.486-4.457,3.074-6.737,4.662V494.44c.82,1.229,1.639,2.485,2.459,3.74-.768.487-1.614,1-2.459,1.537v85.809c1.255-.922,2.485-1.793,3.868-2.792.948,1.434,1.793,2.741,2.766,4.175-1.332.922-2.561,1.767-4,2.766A44.081,44.081,0,0,1-5.19,586.217Zm23.591,6.3c-.845-1.076-1.46-1.844-2.254-2.818,1.076-.82,2.1-1.614,3.33-2.536.717,1.076,1.383,2.075,2.075,3.125C20.476,591.058,19.579,591.7,18.4,592.518Zm4-20.338c-1.076-1.383-2.1-2.664-3.3-4.2,1.358-1.076,2.69-2.152,4.124-3.253,1.05,1.588,2.024,3.048,3.2,4.841C24.933,570.516,23.7,571.335,22.4,572.18Zm3.2-20.415c-1.23-1.639-2.51-3.355-3.817-5.123,1.767-1.332,3.484-2.587,5.379-4,1.153,1.716,2.357,3.509,3.714,5.584C29.133,549.409,27.469,550.536,25.6,551.766Zm3.714-20.722c-1.332-1.819-2.792-3.766-4.38-5.917,2.1-1.511,4.124-2.971,6.147-4.457,1.383,2,2.869,4.124,4.329,6.276C33.514,528.252,31.49,529.609,29.313,531.044Zm10.3,65.419c-.768-1.076-1.46-2.049-2.28-3.151,1.255-1,2.357-1.921,3.586-2.92.845,1.153,1.588,2.152,2.536,3.432C42.222,594.67,41.044,595.49,39.61,596.463Zm3.56-20.568c-1-1.2-2-2.433-3.151-3.816,1.537-1.127,3-2.229,4.687-3.483.973,1.537,1.767,2.818,2.613,4.175C45.962,573.794,44.656,574.767,43.17,575.894Zm3.868-20.312c-1.178-1.614-2.357-3.228-3.714-5.1,1.691-1.281,3.458-2.613,5.225-3.97,1.178,1.767,2.357,3.561,3.663,5.507C50.522,553.2,48.805,554.378,47.038,555.582ZM46.5,529.02c1.87-1.409,3.868-2.869,6.045-4.482,1.434,2.1,2.843,4.175,4.252,6.25-1.921,1.281-4,2.664-6.1,4.047C49.395,533.016,47.986,531.069,46.5,529.02Zm10.963,92.11c-.845-1.076-1.588-2.049-2.459-3.176,1.178-.768,2.2-1.435,3.279-2.152.768,1.1,1.409,2.023,2.152,3.125C59.435,619.67,58.539,620.336,57.463,621.13Zm3.56-20.876c-.973-1.281-1.844-2.433-2.792-3.688,1.281-.948,2.485-1.819,3.919-2.869.9,1.255,1.767,2.433,2.818,3.919C63.534,598.589,62.381,599.357,61.024,600.254Zm3.688-20.722c-.922-1.358-1.742-2.561-2.69-3.945,1.332-1.05,2.561-2.049,4.047-3.2.948,1.435,1.87,2.818,2.818,4.278C67.427,577.662,66.121,578.558,64.712,579.532Zm3.714-20.082c-1.178-1.639-2.357-3.279-3.689-5.123,1.844-1.358,3.56-2.613,5.3-3.919,1.255,1.844,2.51,3.714,3.74,5.533C71.961,557.119,70.194,558.3,68.426,559.45Zm-.461-26.665c1.87-1.409,3.842-2.869,5.917-4.431,1.383,1.972,2.843,4.073,4.354,6.25-2.049,1.358-4.1,2.715-6.1,4.021C70.783,536.756,69.425,534.834,67.965,532.785Zm10.809,92.443c-.9-1.23-1.562-2.126-2.382-3.279,1.1-.845,2.126-1.665,3.356-2.613.794,1.153,1.486,2.152,2.331,3.355C81.029,623.486,80.055,624.229,78.774,625.228Zm3.74-21c-.973-1.306-1.87-2.484-2.894-3.816,1.306-1,2.561-1.972,3.97-3.048.948,1.409,1.844,2.741,2.92,4.3C85,602.611,83.846,603.353,82.514,604.224Zm3.56-20.748c-.922-1.383-1.819-2.689-2.741-4.1,1.486-1.2,2.869-2.305,4.457-3.586,1.153,1.588,2.1,2.92,3.176,4.406C89.328,581.3,87.791,582.349,86.075,583.476Zm3.612-20.466c-1.153-1.486-2.357-3.048-3.714-4.79,1.742-1.306,3.535-2.638,5.482-4.1,1.05,1.588,2.152,3.228,3.381,5.046C93.042,560.5,91.428,561.7,89.686,563.01ZM89.3,536.653c1.947-1.46,4.021-3,6.071-4.534,1.486,2.152,2.971,4.3,4.406,6.4-1.947,1.306-4.047,2.689-6.224,4.124C92.273,540.8,90.839,538.8,89.3,536.653Zm10.861,92.571c-.948-1.307-1.742-2.408-2.613-3.586,1.229-.922,2.331-1.767,3.586-2.69.845,1.178,1.639,2.28,2.715,3.74C102.673,627.508,101.495,628.3,100.163,629.224Zm3.688-20.85c-1-1.357-1.972-2.664-3.048-4.124,1.409-1.076,2.766-2.1,4.278-3.253,1,1.46,1.947,2.894,3.048,4.508C106.515,606.581,105.285,607.4,103.851,608.374Zm3.714-20.927c-1.127-1.562-2.28-3.1-3.535-4.816,1.793-1.358,3.381-2.536,4.944-3.714,1.153,1.665,2.28,3.33,3.535,5.2C110.946,585.193,109.333,586.268,107.565,587.447Zm3.612-20.62c-1.127-1.742-2.28-3.509-3.381-5.174,1.716-1.332,3.3-2.562,5.072-3.945,1.153,1.716,2.357,3.535,3.56,5.328C114.66,564.317,112.944,565.572,111.177,566.827Zm-.666-26.434c2.049-1.486,4.15-3.022,6.3-4.559,1.588,2.254,3.074,4.406,4.559,6.48-2.049,1.383-4.3,2.894-6.48,4.354C113.508,544.7,112.022,542.544,110.511,540.393ZM121.6,633.4c-1.025-1.332-1.972-2.613-3-3.97,1.588-1.153,2.792-2.049,4.1-3,.948,1.383,1.844,2.715,2.869,4.226C124.215,631.581,123.011,632.426,121.6,633.4Zm3.612-20.9c-1.1-1.511-2.152-2.894-3.279-4.457,1.46-1.127,2.946-2.228,4.636-3.509,1.153,1.69,2.152,3.125,3.33,4.816C128.39,610.372,126.879,611.371,125.214,612.5Zm3.688-20.927c-1.178-1.665-2.382-3.356-3.637-5.123,1.716-1.306,3.407-2.561,5.2-3.919,1.358,1.972,2.561,3.74,3.791,5.533C132.514,589.188,130.8,590.341,128.9,591.571Zm3.688-20.722c-1.153-1.716-2.331-3.509-3.586-5.4,1.691-1.281,3.355-2.561,5.046-3.868,1.434,1.87,2.766,3.56,4.124,5.3C136.433,568.133,134.614,569.44,132.591,570.848Zm3.279-21.209c-1.409-1.793-2.818-3.612-4.252-5.43,2.075-1.434,4.124-2.843,6.224-4.278,1.2,1.793,2.485,3.714,3.842,5.712C139.635,547.053,137.79,548.333,135.869,549.64Zm-1.306-27.074c2.28-1.742,4.739-3.637,6.942-5.328,1.614,2.433,3.407,5.174,5.149,7.838-2.1,1.255-4.534,2.741-6.813,4.1C138,526.894,136.151,524.563,134.563,522.565ZM146.627,616.8c-1.2-1.665-2.382-3.33-3.637-5.1,1.434-1,2.869-2,4.508-3.151,1.306,1.716,2.433,3.2,3.714,4.892C149.8,614.5,148.344,615.546,146.627,616.8Zm3.432-21.593c-1.229-1.588-2.433-3.2-3.842-5.02,1.819-1.255,3.484-2.382,5.2-3.56,1.358,1.793,2.689,3.56,4.021,5.328C153.671,593.03,151.878,594.132,150.06,595.208Zm3.714-20.85c-1.562-2.049-3.023-3.944-4.483-5.866,1.9-1.434,3.842-2.92,5.763-4.355,1.562,2.2,3.1,4.431,4.636,6.609C157.847,571.873,155.849,573.1,153.774,574.358Zm3.1-20.21c-1.306-1.972-2.741-4.175-4.2-6.4,2.024-1.588,4.2-3.3,6.378-5q1.96,3.228,4.15,6.839C161.125,551.1,159,552.637,156.873,554.148Zm-1.562-27.638c2.485-1.87,5.277-3.97,7.633-5.763,1.665,2.562,3.535,5.4,5.328,8.12-2.28,1.486-4.969,3.227-7.659,4.969C158.948,531.556,157.027,528.892,155.311,526.51Zm12.321,93.954c-1.281-1.69-2.536-3.355-3.919-5.174,1.665-1.281,3.33-2.536,4.995-3.817,1.434,1.947,2.818,3.842,4.226,5.738C171.217,618.261,169.424,619.362,167.631,620.464Zm3.2-20.389c-1.332-1.947-2.69-3.919-4.15-6.071,1.9-1.435,3.919-2.971,5.943-4.483q2.305,3.266,4.457,6.378C175.111,597.206,173.01,598.615,170.833,600.075ZM174.5,579.1c-1.409-2.024-2.971-4.278-4.559-6.557,2.126-1.562,4.38-3.253,6.609-4.918,1.665,2.356,3.3,4.687,4.867,6.916C179.209,575.971,176.827,577.56,174.5,579.1Zm13.934,46.26c-1.306-1.9-2.69-3.919-4.175-6.122,2-1.485,3.919-2.92,5.917-4.406,1.409,1.972,2.946,4.073,4.508,6.276C192.734,622.436,190.608,623.9,188.43,625.356Zm3.688-21.081c-1.409-2.024-2.946-4.252-4.508-6.48,2.126-1.562,4.354-3.176,6.557-4.79,1.486,2.126,3.1,4.431,4.764,6.788C196.7,601.253,194.373,602.764,192.119,604.275Zm3.791-20.927-4.944-7.1c2.357-1.767,4.816-3.612,7.121-5.328,1.563,2.357,3.355,5.046,5.02,7.556C200.725,580.1,198.241,581.786,195.91,583.348Zm-1.793-28.535c2.613-1.972,5.507-4.15,7.864-5.917,1.691,2.536,3.74,5.584,5.635,8.427-2.357,1.46-5.3,3.3-8.069,5.02C197.831,559.911,195.807,557.119,194.117,554.814Zm15.574,74.82c-1.486-2.177-3.048-4.431-4.534-6.583,2.254-1.691,4.559-3.381,6.583-4.892,1.639,2.305,3.279,4.636,4.867,6.89C214.455,626.483,212.072,628.071,209.69,629.634Zm3.791-21.055c-1.537-2.229-3.227-4.687-4.892-7.07,2.357-1.767,4.892-3.689,7.07-5.328,1.691,2.484,3.458,5.1,5.149,7.556C218.476,605.3,215.889,606.991,213.481,608.579ZM231,633.911c-1.588-2.331-3.356-4.867-4.944-7.146,2.433-1.844,4.995-3.791,7.2-5.482,1.639,2.433,3.484,5.149,5.2,7.736C236,630.633,233.435,632.349,231,633.911Zm3.714-21.029c-1.665-2.357-3.637-5.174-5.353-7.633,2.51-1.844,5.328-3.919,7.838-5.738,1.665,2.459,3.74,5.533,5.635,8.3C240.351,609.347,237.456,611.166,234.716,612.882ZM259.1,602.405a10.85,10.85,0,0,0,6.66,8.94c-3.227,1.947-6.788,4.073-9.836,5.891-1.767-2.536-3.97-5.712-5.686-8.2C252.9,607.042,256.1,604.66,259.1,602.405Zm-18.135-24.718c1.921,2.69,4.329,6.045,6.327,8.811-2.51,1.511-5.994,3.612-8.914,5.379-1.819-2.587-3.97-5.661-5.661-8.094C235.3,581.863,238.43,579.558,240.966,577.688ZM223.906,552a10.9,10.9,0,0,0,6.378,8.863c-3.1,1.9-6.506,3.97-9.4,5.738-1.87-2.613-4.021-5.584-5.814-8.069C217.708,556.581,220.91,554.225,223.906,552Zm-4.329,22.233c1.691,2.51,3.74,5.507,5.584,8.248-2.485,1.562-5.353,3.381-7.966,5.046-1.716-2.408-3.637-5.123-5.328-7.5C214.4,578.123,217.221,576.023,219.578,574.229ZM205.9,527.483c1.562,2.638,3.484,5.866,5.149,8.658-2.331,1.69-5.225,3.765-7.889,5.686-1.486-2.433-3.279-5.379-4.816-7.915C200.777,531.838,203.594,529.455,205.9,527.483ZM188.225,499.23c.64,2.305.845,4.892,2.075,6.839,1.486,2.331,3.868,4.1,5.635,5.866A11.106,11.106,0,0,0,186,517.852c-2.28-3.176-4.662-6.506-6.865-9.58C183.333,507.324,187.687,505.3,188.225,499.23ZM184.588,524.1c1.306,2.28,3.048,5.328,4.687,8.2-2.305,1.665-5.046,3.637-7.428,5.379-1.819-2.433-3.817-5.1-5.482-7.351C178.927,528.354,181.924,526.1,184.588,524.1ZM180.669,546c1.562,2.2,3.33,4.739,5.1,7.249-2.382,1.562-4.969,3.279-7.556,4.969-1.332-2.049-2.894-4.406-4.354-6.66C176.084,549.742,178.543,547.744,180.669,546ZM166.888,498.82c1.819,2.664,4.175,6.1,6.045,8.837-2.613,1.639-5.891,3.714-8.709,5.482-1.767-2.51-3.945-5.584-5.763-8.171C161,503.1,164.2,500.793,166.888,498.82Zm-17.418-28.1c1.025,5.123,2.228,10.118,8.427,11.936-5.2.282-9.093,2.51-10.937,6.327-2.2-3.151-4.534-6.506-6.839-9.81C144.4,478.636,148.011,475.9,149.471,470.721Zm-4.021,24.359c1.614,2.536,3.714,5.789,5.635,8.786-2.305,1.434-5.3,3.279-8.145,5.02-1.819-2.485-3.868-5.277-5.661-7.684C139.891,499.256,142.964,496.951,145.449,495.081ZM128.441,468.9a10.833,10.833,0,0,0,6.609,9.5c-3.074,1.639-6.4,3.432-9.272,4.995-1.9-2.331-4.226-5.148-6.147-7.531C122.217,473.846,125.393,471.336,128.441,468.9Zm-4.226,23.463c1.639,2.28,3.586,4.969,5.379,7.48-2.382,1.434-5.02,3-7.505,4.482-1.742-2.254-3.688-4.764-5.456-7.044C118.989,495.772,121.756,493.979,124.215,492.366Zm-3.97,22c1.639,2.254,3.33,4.559,5.02,6.865-2.1,1.486-4.406,3.1-6.583,4.636-1.691-2.382-3.407-4.816-5.02-7.044C115.813,517.365,118.067,515.828,120.244,514.368Zm-13.576-47.541c1.87,2.433,4.175,5.43,6.173,8.017-2.51,1.691-5.661,3.842-8.171,5.558-1.947-2.69-4.2-5.84-6.1-8.478C100.88,470.491,103.9,468.57,106.669,466.828Zm-3.3,20.978c1.588,2.485,3.484,5.43,5.225,8.171-2.357,1.537-5.046,3.3-7.659,5.046-1.716-2.331-3.688-5.02-5.43-7.4C98.011,491.751,100.905,489.6,103.364,487.806Zm-4,22.182c1.511,2.28,3.125,4.739,4.79,7.223-2.1,1.409-4.534,3.023-6.89,4.585-1.537-2.126-3.2-4.457-4.867-6.737C94.732,513.369,97.114,511.628,99.369,509.988Zm-13.55-48.027c1.793,2.715,4.073,6.173,5.917,8.965-2.613,1.691-5.866,3.791-8.555,5.533-1.819-2.561-4.021-5.635-5.815-8.145C80.03,466.315,83.283,463.882,85.818,461.961Zm-3.868,22.131c1.511,2.408,3.33,5.277,5.123,8.12-2.152,1.409-4.841,3.151-7.479,4.892-1.819-2.459-3.74-5.046-5.456-7.326C76.623,487.96,79.466,485.885,81.951,484.092ZM77.929,506.3c1.588,2.331,3.227,4.764,4.79,7.018-2.177,1.434-4.559,3.022-6.89,4.559-1.562-2.177-3.253-4.482-4.816-6.634C73.293,509.63,75.675,507.914,77.929,506.3Zm-13.5-48.309c1.639,2.638,3.817,6.1,5.738,9.17-2.433,1.562-5.661,3.637-8.4,5.4-1.844-2.536-4.1-5.661-5.814-8.017C58.667,462.422,61.946,459.912,64.43,457.991Zm-3.868,22.336c1.486,2.357,3.33,5.277,5.02,7.992-2.28,1.511-4.944,3.279-7.428,4.944-1.819-2.433-3.817-5.072-5.482-7.275C55.183,484.169,57.975,482.2,60.563,480.327Zm-4.1,22.208c1.588,2.331,3.227,4.687,4.79,6.993-2.1,1.409-4.483,2.971-6.865,4.559-1.46-2.024-3.048-4.278-4.764-6.66C51.751,505.916,54.108,504.225,56.464,502.535ZM43.093,454.661c1.716,2.561,3.945,5.84,5.763,8.555-2.69,1.767-5.84,3.817-8.658,5.661-1.409-2.254-3.2-5.123-4.764-7.582C37.894,459.195,40.762,456.71,43.093,454.661Zm-4.021,21.8c1.562,2.459,3.407,5.328,5.123,8.017-2.28,1.511-4.969,3.3-7.479,4.995-1.819-2.433-3.817-5.1-5.507-7.326ZM35.05,498.641c1.537,2.254,3.227,4.713,4.816,7.044-2.126,1.434-4.508,3.022-6.89,4.585-1.537-2.126-3.227-4.431-4.867-6.66C30.465,501.945,32.8,500.28,35.05,498.641ZM21.705,450.793c1.332,2.459,3.1,5.763,4.79,8.888-2.357,1.742-5.2,3.893-7.582,5.661-1.511-2.433-3.33-5.328-4.969-7.966C16.429,455.3,19.374,452.791,21.705,450.793Zm-4,21.747c1.537,2.433,3.356,5.328,5.1,8.145-2.382,1.614-5.046,3.407-7.556,5.123-1.793-2.433-3.817-5.174-5.558-7.505C12.253,476.459,15.225,474.333,17.709,472.54Zm-4,22.208c1.537,2.28,3.176,4.739,4.816,7.172-2.152,1.434-4.585,3.048-6.967,4.611-1.691-2.254-3.458-4.611-5.046-6.737C8.975,498.078,11.383,496.361,13.714,494.748ZM9.743,516.7c1.383,2.075,2.843,4.278,4.329,6.48-2.049,1.383-4.124,2.792-6.2,4.2-1.383-1.9-2.843-3.919-4.431-6.1C5.44,519.824,7.592,518.262,9.743,516.7Zm-4,21.977c1.255,1.9,2.536,3.842,3.842,5.789C8,545.49,6.439,546.489,4.672,547.616c-1.409-1.767-2.638-3.3-3.97-4.995C2.366,541.315,4.031,540.034,5.747,538.677ZM1.162,569.055c-1.255-1.716-2.28-3.125-3.432-4.713,1.358-.973,2.741-2,4.252-3.074,1.1,1.511,2.2,3,3.432,4.636C3.98,566.955,2.622,567.98,1.162,569.055Z" transform="translate(5.19 -209.554)" fill="#f8f8f8"/>
      <path id="Path_26847" data-name="Path 26847" d="M92.58,478.938c1.383-2.177,2.459-4.713,4.252-6.48,3.048-3,7.94-3.2,11.655-1.076a10.312,10.312,0,0,1,5.1,10.579,10.012,10.012,0,0,1-8.043,8.5c-1.229.256-2.485.384-3.74.589l.128.077c-5.917-2-9.17-5.994-9.221-12.346Z" transform="translate(157.853 -135.061)" fill="#f8f8f8"/>
      <path id="Path_26848" data-name="Path 26848" d="M85.63,470.707c1.639-6.173,5.149-10.246,11.911-10.656l-.1-.051c7.07,2.715,9.913,6.173,9.5,11.475a10.323,10.323,0,0,1-20.312,1.819c-.256-.922-.64-1.819-.973-2.715A1.105,1.105,0,0,1,85.63,470.707Z" transform="translate(147.001 -150.626)" fill="#f8f8f8"/>
      <path id="Path_26849" data-name="Path 26849" d="M120.74,491c-2.971,7.684-7.044,10.579-13.089,9.221a10.3,10.3,0,1,1,12.218-12.859c.333,1.23.512,2.485.768,3.74Z" transform="translate(168.832 -119.612)" fill="#f8f8f8"/>
      <path id="Path_26850" data-name="Path 26850" d="M52.712,435.662A10.25,10.25,0,1,1,42.7,424.981C48.46,425.109,52.712,429.617,52.712,435.662Z" transform="translate(63.604 -205.309)" fill="#f8f8f8"/>
      <path id="Path_26851" data-name="Path 26851" d="M40.29,436.275c-.051-5.225,4.585-9.733,10.092-9.785a10.21,10.21,0,0,1,.384,20.415C44.747,447.059,40.341,442.576,40.29,436.275Z" transform="translate(76.205 -202.95)" fill="#f8f8f8"/>
      <path id="Path_26852" data-name="Path 26852" d="M9,439.746a10.208,10.208,0,1,1,.2-20.415A10.208,10.208,0,0,1,9,439.746Z" transform="translate(11.436 -214.131)" fill="#f8f8f8"/>
      <path id="Path_26853" data-name="Path 26853" d="M116.786,489.75a10.209,10.209,0,1,1-10.246,10.066A10.1,10.1,0,0,1,116.786,489.75Z" transform="translate(179.651 -104.173)" fill="#f8f8f8"/>
      <path id="Path_26854" data-name="Path 26854" d="M84.342,449.4a10.247,10.247,0,1,1-10.22-10.092A10.154,10.154,0,0,1,84.342,449.4Z" transform="translate(112.992 -182.932)" fill="#f8f8f8"/>
      <path id="Path_26855" data-name="Path 26855" d="M99.562,460.974A10.246,10.246,0,1,1,89.6,450.652,10.179,10.179,0,0,1,99.562,460.974Z" transform="translate(136.758 -165.227)" fill="#f8f8f8"/>
      <path id="Path_26856" data-name="Path 26856" d="M27.642,430.9A10.247,10.247,0,1,1,17.448,420.81,10.176,10.176,0,0,1,27.642,430.9Z" transform="translate(24.458 -211.819)" fill="#f8f8f8"/>
      <path id="Path_26857" data-name="Path 26857" d="M68.942,438.318a10.132,10.132,0,1,1-9.964-10.3A9.971,9.971,0,0,1,68.942,438.318Z" transform="translate(89.305 -200.562)" fill="#f8f8f8"/>
      <path id="Path_26858" data-name="Path 26858" d="M82.439,461.029a10.08,10.08,0,1,1,9.99-10.271A9.923,9.923,0,0,1,82.439,461.029Z" transform="translate(126.14 -180.497)" fill="#f8f8f8"/>
      <path id="Path_26859" data-name="Path 26859" d="M-5.19,417.92v20.031a9.917,9.917,0,0,0,9.17-10.195A9.893,9.893,0,0,0-5.19,417.92Z" transform="translate(5.19 -216.332)" fill="#f8f8f8"/>
      <path id="Path_26860" data-name="Path 26860" d="M94.621,472.2c-4.1-2.049-7.121-4.867-7.121-9.862a10.035,10.035,0,1,1,10.809,9.913,37,37,0,0,1-3.765-.128C94.518,472.15,94.621,472.2,94.621,472.2Z" transform="translate(149.921 -162.776)" fill="#f8f8f8"/>
      <path id="Path_26861" data-name="Path 26861" d="M104.452,481.868a10.054,10.054,0,1,1,10.015-10.195A9.859,9.859,0,0,1,104.452,481.868Z" transform="translate(160.633 -147.878)" fill="#f8f8f8"/>
      <path id="Path_26862" data-name="Path 26862" d="M107.874,488.591c2.049-4.1,4.867-7.121,9.862-7.121a10.035,10.035,0,1,1-9.913,10.809,36.983,36.983,0,0,1,.128-3.765C107.951,488.488,107.874,488.591,107.874,488.591Z" transform="translate(181.621 -117.101)" fill="#f8f8f8"/>
      <path id="Path_26863" data-name="Path 26863" d="M77.142,439.643a10.041,10.041,0,1,1-9.785-10.092A9.894,9.894,0,0,1,77.142,439.643Z" transform="translate(102.39 -198.173)" fill="#f8f8f8"/>
      <path id="Path_26864" data-name="Path 26864" d="M111.44,471.61a10.044,10.044,0,1,1-10.22,9.964A9.908,9.908,0,0,1,111.44,471.61Z" transform="translate(171.344 -132.498)" fill="#f8f8f8"/>
      <path id="Path_26865" data-name="Path 26865" d="M75.219,450.976a9.956,9.956,0,1,1,10.143-9.657A9.9,9.9,0,0,1,75.219,450.976Z" transform="translate(115.506 -195.802)" fill="#f8f8f8"/>
      <path id="Path_26866" data-name="Path 26866" d="M27.023,433.964a9.952,9.952,0,1,1,9.99-9.81A9.9,9.9,0,0,1,27.023,433.964Z" transform="translate(40.01 -222.36)" fill="#f8f8f8"/>
      <path id="Path_26867" data-name="Path 26867" d="M28.637,422.391a9.939,9.939,0,1,1-10.067-9.81A9.916,9.916,0,0,1,28.637,422.391Z" transform="translate(26.972 -224.671)" fill="#f8f8f8"/>
      <path id="Path_26868" data-name="Path 26868" d="M51.854,418.55a9.926,9.926,0,1,1-9.964,9.887A9.959,9.959,0,0,1,51.854,418.55Z" transform="translate(78.703 -215.348)" fill="#f8f8f8"/>
      <path id="Path_26869" data-name="Path 26869" d="M42.972,436.994c-4.995.026-9.426-4.662-9.452-9.964a9.952,9.952,0,0,1,19.9-.2C53.525,432.64,49.068,436.968,42.972,436.994Z" transform="translate(65.634 -217.706)" fill="#f8f8f8"/>
      <path id="Path_26870" data-name="Path 26870" d="M124.833,511.268a9.965,9.965,0,1,1,9.759-10.066A9.91,9.91,0,0,1,124.833,511.268Z" transform="translate(192.377 -101.69)" fill="#f8f8f8"/>
      <path id="Path_26871" data-name="Path 26871" d="M35.373,435.454a9.953,9.953,0,1,1,9.99-9.81A9.9,9.9,0,0,1,35.373,435.454Z" transform="translate(53.048 -220.034)" fill="#f8f8f8"/>
      <path id="Path_26872" data-name="Path 26872" d="M90.66,462.313a9.952,9.952,0,1,1,9.913-9.887A9.883,9.883,0,0,1,90.66,462.313Z" transform="translate(139.256 -178.092)" fill="#f8f8f8"/>
      <path id="Path_26873" data-name="Path 26873" d="M129.117,483.134a9.889,9.889,0,1,1-9.913-9.964A10,10,0,0,1,129.117,483.134Z" transform="translate(184.021 -130.061)" fill="#f8f8f8"/>
      <path id="Path_26874" data-name="Path 26874" d="M115.372,464.187a9.882,9.882,0,1,1-9.426-10.4A10.039,10.039,0,0,1,115.372,464.187Z" transform="translate(162.597 -160.345)" fill="#f8f8f8"/>
      <path id="Path_26875" data-name="Path 26875" d="M10.626,411.1a9.908,9.908,0,1,1-.794,19.8,9.909,9.909,0,0,1,.794-19.8Z" transform="translate(13.964 -226.984)" fill="#f8f8f8"/>
      <path id="Path_26876" data-name="Path 26876" d="M122.3,473.259a9.914,9.914,0,1,1-9.99-9.939A9.97,9.97,0,0,1,122.3,473.259Z" transform="translate(173.295 -145.442)" fill="#f8f8f8"/>
      <path id="Path_26877" data-name="Path 26877" d="M108.731,453.969a9.828,9.828,0,1,1-9.554-10.015A10.018,10.018,0,0,1,108.731,453.969Z" transform="translate(152.383 -175.69)" fill="#f8f8f8"/>
      <path id="Path_26878" data-name="Path 26878" d="M-2.039,409.621a9.888,9.888,0,0,0-3.151.487v18.75a9.826,9.826,0,0,0,2.613.487A10.043,10.043,0,0,0,7.566,419.56,10.037,10.037,0,0,0-2.039,409.621Z" transform="translate(5.19 -229.293)" fill="#f8f8f8"/>
      <path id="Path_26879" data-name="Path 26879" d="M140.57,514.456a9.844,9.844,0,0,0,.743-3.663,9.862,9.862,0,1,0-19.723,0,9.611,9.611,0,0,0,.743,3.637H140.57Z" transform="translate(203.151 -86.717)" fill="#f8f8f8"/>
      <path id="Path_26880" data-name="Path 26880" d="M135.862,492.784a9.811,9.811,0,1,1-9.759-9.734A10.018,10.018,0,0,1,135.862,492.784Z" transform="translate(194.796 -114.634)" fill="#f8f8f8"/>
      <path id="Path_26881" data-name="Path 26881" d="M68.435,440.877a9.8,9.8,0,1,1,9.81-9.708A10.008,10.008,0,0,1,68.435,440.877Z" transform="translate(104.873 -211.087)" fill="#f8f8f8"/>
      <path id="Path_26882" data-name="Path 26882" d="M93.569,442.858A9.87,9.87,0,1,1,84.3,432.613,10.027,10.027,0,0,1,93.569,442.858Z" transform="translate(128.586 -193.422)" fill="#f8f8f8"/>
      <path id="Path_26883" data-name="Path 26883" d="M59.6,439.479a9.863,9.863,0,1,1,10.374-9.119A9.994,9.994,0,0,1,59.6,439.479Z" transform="translate(91.783 -213.454)" fill="#f8f8f8"/>
      <path id="Path_26884" data-name="Path 26884" d="M132.731,512.319a9.685,9.685,0,1,1,9.785-9.657A9.863,9.863,0,0,1,132.731,512.319Z" transform="translate(205.585 -99.18)" fill="#f8f8f8"/>
      <path id="Path_26885" data-name="Path 26885" d="M101.635,443.716a9.683,9.683,0,1,1-9.887-9.554A9.863,9.863,0,0,1,101.635,443.716Z" transform="translate(141.754 -190.976)" fill="#f8f8f8"/>
      <path id="Path_26886" data-name="Path 26886" d="M37.936,415.266a9.594,9.594,0,1,1-9.58-9.426A9.7,9.7,0,0,1,37.936,415.266Z" transform="translate(42.57 -235.194)" fill="#f8f8f8"/>
      <path id="Path_26887" data-name="Path 26887" d="M130.106,475.089a9.584,9.584,0,1,1-8.811-10.118A9.613,9.613,0,0,1,130.106,475.089Z" transform="translate(186.541 -142.918)" fill="#f8f8f8"/>
      <path id="Path_26888" data-name="Path 26888" d="M76.875,442.063a9.607,9.607,0,1,1,9.4-9.605A9.664,9.664,0,0,1,76.875,442.063Z" transform="translate(118.052 -208.636)" fill="#f8f8f8"/>
      <path id="Path_26889" data-name="Path 26889" d="M123.246,465.212a9.582,9.582,0,1,1-8.837-10.092A9.6,9.6,0,0,1,123.246,465.212Z" transform="translate(175.829 -158.296)" fill="#f8f8f8"/>
      <path id="Path_26890" data-name="Path 26890" d="M29.5,413.976a9.543,9.543,0,1,1-9.4-9.605A9.511,9.511,0,0,1,29.5,413.976Z" transform="translate(29.546 -237.49)" fill="#f8f8f8"/>
      <path id="Path_26891" data-name="Path 26891" d="M45.956,417.5a9.584,9.584,0,1,1-8.811-10.118A9.613,9.613,0,0,1,45.956,417.5Z" transform="translate(55.144 -232.842)" fill="#f8f8f8"/>
      <path id="Path_26892" data-name="Path 26892" d="M106.727,464.635a9.543,9.543,0,1,1,9.605-9.4A9.511,9.511,0,0,1,106.727,464.635Z" transform="translate(165.145 -173.191)" fill="#f8f8f8"/>
      <path id="Path_26893" data-name="Path 26893" d="M44.192,427.986a9.583,9.583,0,1,1,10.092-8.837A9.59,9.59,0,0,1,44.192,427.986Z" transform="translate(68.204 -230.522)" fill="#f8f8f8"/>
      <path id="Path_26894" data-name="Path 26894" d="M109.174,445a9.363,9.363,0,1,1-9.605-9.221A9.177,9.177,0,0,1,109.174,445Z" transform="translate(154.527 -188.445)" fill="#f8f8f8"/>
      <path id="Path_26895" data-name="Path 26895" d="M148.9,511.832a9.389,9.389,0,0,0-18.775,0H148.9Z" transform="translate(216.47 -84.093)" fill="#f8f8f8"/>
      <path id="Path_26896" data-name="Path 26896" d="M133.816,503.44a9.372,9.372,0,1,1,9.657-9.144A9.218,9.218,0,0,1,133.816,503.44Z" transform="translate(208.113 -112.048)" fill="#f8f8f8"/>
      <path id="Path_26897" data-name="Path 26897" d="M136.815,484.154a9.478,9.478,0,1,1-9.529-9.324A9.409,9.409,0,0,1,136.815,484.154Z" transform="translate(197.327 -127.47)" fill="#f8f8f8"/>
      <path id="Path_26898" data-name="Path 26898" d="M20.969,412.536a9.313,9.313,0,0,1-9.605,9.272,9.44,9.44,0,1,1,.333-18.878A9.282,9.282,0,0,1,20.969,412.536Z" transform="translate(16.557 -239.739)" fill="#f8f8f8"/>
      <path id="Path_26899" data-name="Path 26899" d="M53.157,429.34a9.491,9.491,0,1,1,9.349-9.529A9.392,9.392,0,0,1,53.157,429.34Z" transform="translate(81.294 -228.136)" fill="#f8f8f8"/>
      <path id="Path_26900" data-name="Path 26900" d="M51.961,421.107a9.353,9.353,0,1,1,9.272,9.529A9.174,9.174,0,0,1,51.961,421.107Z" transform="translate(94.426 -225.718)" fill="#f8f8f8"/>
      <path id="Path_26901" data-name="Path 26901" d="M94.254,433.662a9.363,9.363,0,1,1-9.605-9.221A9.177,9.177,0,0,1,94.254,433.662Z" transform="translate(131.23 -206.152)" fill="#f8f8f8"/>
      <path id="Path_26902" data-name="Path 26902" d="M121.709,456.72a9.222,9.222,0,1,1-9.119,9.2A9.135,9.135,0,0,1,121.709,456.72Z" transform="translate(189.098 -155.748)" fill="#f8f8f8"/>
      <path id="Path_26903" data-name="Path 26903" d="M124.189,456.391a9.235,9.235,0,1,1-9.144-9.221A9.118,9.118,0,0,1,124.189,456.391Z" transform="translate(178.37 -170.659)" fill="#f8f8f8"/>
      <path id="Path_26904" data-name="Path 26904" d="M93.043,444.409a9.211,9.211,0,1,1,9.324-9.016A9.107,9.107,0,0,1,93.043,444.409Z" transform="translate(144.378 -203.733)" fill="#f8f8f8"/>
      <path id="Path_26905" data-name="Path 26905" d="M150.107,503.79a9.209,9.209,0,1,1-9.17-9.17A9.107,9.107,0,0,1,150.107,503.79Z" transform="translate(218.921 -96.569)" fill="#f8f8f8"/>
      <path id="Path_26906" data-name="Path 26906" d="M1.29,401.471a9.325,9.325,0,0,0-6.48,2.715V417.4a9.207,9.207,0,0,0,6.737,2.715,9.159,9.159,0,0,0,9.3-9.452A9.176,9.176,0,0,0,1.29,401.471Z" transform="translate(5.19 -242.019)" fill="#f8f8f8"/>
      <path id="Path_26907" data-name="Path 26907" d="M69.623,413.14a9.247,9.247,0,1,1-9.272,9.042A9.117,9.117,0,0,1,69.623,413.14Z" transform="translate(107.527 -223.796)" fill="#f8f8f8"/>
      <path id="Path_26908" data-name="Path 26908" d="M128.518,466.571a9.209,9.209,0,1,1-9.068,9.272A9.109,9.109,0,0,1,128.518,466.571Z" transform="translate(199.81 -140.368)" fill="#f8f8f8"/>
      <path id="Path_26909" data-name="Path 26909" d="M135.613,494.77a9.171,9.171,0,1,1,9.068-9.272A9.161,9.161,0,0,1,135.613,494.77Z" transform="translate(210.568 -124.971)" fill="#f8f8f8"/>
      <path id="Path_26910" data-name="Path 26910" d="M77.936,414.66a9.17,9.17,0,1,1-9.2,9.144A9.194,9.194,0,0,1,77.936,414.66Z" transform="translate(120.628 -221.422)" fill="#f8f8f8"/>
      <path id="Path_26911" data-name="Path 26911" d="M108.127,437.34a9.17,9.17,0,1,1-9.247,9.093A9.161,9.161,0,0,1,108.127,437.34Z" transform="translate(167.69 -186.009)" fill="#f8f8f8"/>
      <path id="Path_26912" data-name="Path 26912" d="M12.061,405.148a9.251,9.251,0,0,1,9.4-8.965,9.147,9.147,0,0,1-.333,18.289A9.255,9.255,0,0,1,12.061,405.148Z" transform="translate(32.124 -250.28)" fill="#f8f8f8"/>
      <path id="Path_26913" data-name="Path 26913" d="M12.891,412.887a9.093,9.093,0,1,1-.154-18.186,9.093,9.093,0,1,1,.154,18.186Z" transform="translate(19.102 -252.589)" fill="#f8f8f8"/>
      <path id="Path_26914" data-name="Path 26914" d="M54.32,420.346a9.093,9.093,0,1,1,9.068-8.939A9.232,9.232,0,0,1,54.32,420.346Z" transform="translate(83.871 -240.94)" fill="#f8f8f8"/>
      <path id="Path_26915" data-name="Path 26915" d="M46.118,400.651a9.135,9.135,0,1,1-9.3,9.068A9.251,9.251,0,0,1,46.118,400.651Z" transform="translate(70.787 -243.299)" fill="#f8f8f8"/>
      <path id="Path_26916" data-name="Path 26916" d="M37.579,399.15a9.171,9.171,0,1,1-9.119,9.324A9.227,9.227,0,0,1,37.579,399.15Z" transform="translate(57.732 -245.64)" fill="#f8f8f8"/>
      <path id="Path_26917" data-name="Path 26917" d="M38.728,406.948a9.16,9.16,0,1,1-9.144-9.3A9.212,9.212,0,0,1,38.728,406.948Z" transform="translate(45.16 -247.982)" fill="#f8f8f8"/>
      <path id="Path_26918" data-name="Path 26918" d="M110.211,436.531a9.081,9.081,0,1,1-9.068-8.991A9.258,9.258,0,0,1,110.211,436.531Z" transform="translate(157.025 -201.311)" fill="#f8f8f8"/>
      <path id="Path_26919" data-name="Path 26919" d="M62.715,403.67a9.055,9.055,0,1,1-9.144,8.965A9.25,9.25,0,0,1,62.715,403.67Z" transform="translate(96.941 -238.583)" fill="#f8f8f8"/>
      <path id="Path_26920" data-name="Path 26920" d="M142.454,504.471a9.081,9.081,0,1,1,8.914-9.145A9.258,9.258,0,0,1,142.454,504.471Z" transform="translate(221.324 -109.544)" fill="#f8f8f8"/>
      <path id="Path_26921" data-name="Path 26921" d="M155.1,509.3a8.91,8.91,0,0,0-16.086,0Z" transform="translate(230.352 -81.566)" fill="#f8f8f8"/>
      <path id="Path_26922" data-name="Path 26922" d="M86.224,434.337a9.068,9.068,0,1,1,9.042-8.991A9.276,9.276,0,0,1,86.224,434.337Z" transform="translate(133.728 -219.019)" fill="#f8f8f8"/>
      <path id="Path_26923" data-name="Path 26923" d="M4.519,411.273a9.017,9.017,0,0,1-.2-18.033,9.017,9.017,0,0,1,.2,18.033Z" transform="translate(6.111 -254.869)" fill="#f8f8f8"/>
      <path id="Path_26924" data-name="Path 26924" d="M70.906,405.23a8.9,8.9,0,1,1-8.914,8.683A8.986,8.986,0,0,1,70.906,405.23Z" transform="translate(110.086 -236.147)" fill="#f8f8f8"/>
      <path id="Path_26925" data-name="Path 26925" d="M145.79,477.069a8.94,8.94,0,1,1-9.068-8.888A9.1,9.1,0,0,1,145.79,477.069Z" transform="translate(213.018 -137.854)" fill="#f8f8f8"/>
      <path id="Path_26926" data-name="Path 26926" d="M132.13,457.569a8.981,8.981,0,1,1-8.965-9.119A9.148,9.148,0,0,1,132.13,457.569Z" transform="translate(191.561 -168.661)" fill="#f8f8f8"/>
      <path id="Path_26927" data-name="Path 26927" d="M130.133,476.24a8.966,8.966,0,1,1,8.837-9.17A9.165,9.165,0,0,1,130.133,476.24Z" transform="translate(202.292 -153.265)" fill="#f8f8f8"/>
      <path id="Path_26928" data-name="Path 26928" d="M116.184,456.8a8.942,8.942,0,1,1,9.016-8.965A9.12,9.12,0,0,1,116.184,456.8Z" transform="translate(180.868 -183.545)" fill="#f8f8f8"/>
      <path id="Path_26929" data-name="Path 26929" d="M149.17,495.961a8.838,8.838,0,1,1-8.965,8.5A8.9,8.9,0,0,1,149.17,495.961Z" transform="translate(232.205 -94.477)" fill="#f8f8f8"/>
      <path id="Path_26930" data-name="Path 26930" d="M94.068,435.454a8.837,8.837,0,1,1,8.888-8.581A8.9,8.9,0,0,1,94.068,435.454Z" transform="translate(146.452 -216.551)" fill="#f8f8f8"/>
      <path id="Path_26931" data-name="Path 26931" d="M152.288,486.886a8.709,8.709,0,1,1-8.632-8.786A8.574,8.574,0,0,1,152.288,486.886Z" transform="translate(223.887 -122.364)" fill="#f8f8f8"/>
      <path id="Path_26932" data-name="Path 26932" d="M87.756,415.545a8.658,8.658,0,1,1-8.581-8.735A8.52,8.52,0,0,1,87.756,415.545Z" transform="translate(123.282 -233.68)" fill="#f8f8f8"/>
      <path id="Path_26933" data-name="Path 26933" d="M117.968,437.956a8.709,8.709,0,1,1-8.632-8.786A8.606,8.606,0,0,1,117.968,437.956Z" transform="translate(170.298 -198.766)" fill="#f8f8f8"/>
      <path id="Path_26934" data-name="Path 26934" d="M63.661,412.415a8.428,8.428,0,1,1,8.5-8.35A8.369,8.369,0,0,1,63.661,412.415Z" transform="translate(99.658 -251.246)" fill="#f8f8f8"/>
      <path id="Path_26935" data-name="Path 26935" d="M110.762,427.735a8.492,8.492,0,1,1-8.555-8.325A8.4,8.4,0,0,1,110.762,427.735Z" transform="translate(159.727 -214.006)" fill="#f8f8f8"/>
      <path id="Path_26936" data-name="Path 26936" d="M22.392,394.925a8.388,8.388,0,0,1-8.248,8.606,8.467,8.467,0,1,1-.256-16.931A8.316,8.316,0,0,1,22.392,394.925Z" transform="translate(21.819 -265.237)" fill="#f8f8f8"/>
      <path id="Path_26937" data-name="Path 26937" d="M63.913,402.375a8.492,8.492,0,1,1-8.555-8.325A8.4,8.4,0,0,1,63.913,402.375Z" transform="translate(86.573 -253.604)" fill="#f8f8f8"/>
      <path id="Path_26938" data-name="Path 26938" d="M95.8,416.637a8.468,8.468,0,1,1-8.274-8.555A8.369,8.369,0,0,1,95.8,416.637Z" transform="translate(136.443 -231.698)" fill="#f8f8f8"/>
      <path id="Path_26939" data-name="Path 26939" d="M38.941,398.148a8.555,8.555,0,1,1-8.325-8.606A8.409,8.409,0,0,1,38.941,398.148Z" transform="translate(47.38 -260.647)" fill="#f8f8f8"/>
      <path id="Path_26940" data-name="Path 26940" d="M38.9,391.03a8.544,8.544,0,1,1-8.709,8.2A8.427,8.427,0,0,1,38.9,391.03Z" transform="translate(60.431 -258.32)" fill="#f8f8f8"/>
      <path id="Path_26941" data-name="Path 26941" d="M125.89,439.351a8.441,8.441,0,1,1-8.3-8.581A8.408,8.408,0,0,1,125.89,439.351Z" transform="translate(183.508 -196.268)" fill="#f8f8f8"/>
      <path id="Path_26942" data-name="Path 26942" d="M131.327,450.14a8.494,8.494,0,1,1-8.606,8.273A8.343,8.343,0,0,1,131.327,450.14Z" transform="translate(204.915 -166.022)" fill="#f8f8f8"/>
      <path id="Path_26943" data-name="Path 26943" d="M124.226,457.59a8.507,8.507,0,1,1,8.632-8.3A8.381,8.381,0,0,1,124.226,457.59Z" transform="translate(194.188 -180.951)" fill="#f8f8f8"/>
      <path id="Path_26944" data-name="Path 26944" d="M22.461,388.06a8.531,8.531,0,0,1-.282,17.059,8.531,8.531,0,0,1,.282-17.059Z" transform="translate(34.839 -262.957)" fill="#f8f8f8"/>
      <path id="Path_26945" data-name="Path 26945" d="M158.844,496.422a8.518,8.518,0,1,1-8.453-8.4A8.344,8.344,0,0,1,158.844,496.422Z" transform="translate(234.723 -106.874)" fill="#f8f8f8"/>
      <path id="Path_26946" data-name="Path 26946" d="M144.8,469.86a8.428,8.428,0,1,1-8.325,8.53A8.386,8.386,0,0,1,144.8,469.86Z" transform="translate(226.385 -135.23)" fill="#f8f8f8"/>
      <path id="Path_26947" data-name="Path 26947" d="M146.564,468.494a8.493,8.493,0,1,1-8.376-8.5A8.364,8.364,0,0,1,146.564,468.494Z" transform="translate(215.626 -150.642)" fill="#f8f8f8"/>
      <path id="Path_26948" data-name="Path 26948" d="M46.779,409.633a8.561,8.561,0,1,1,8.863-8.043A8.438,8.438,0,0,1,46.779,409.633Z" transform="translate(73.482 -255.996)" fill="#f8f8f8"/>
      <path id="Path_26949" data-name="Path 26949" d="M13.934,393.547a8.4,8.4,0,1,1-8.478-8.427A8.4,8.4,0,0,1,13.934,393.547Z" transform="translate(8.811 -267.548)" fill="#f8f8f8"/>
      <path id="Path_26950" data-name="Path 26950" d="M80.432,405.562a8.377,8.377,0,1,1-8.069-8.478A8.453,8.453,0,0,1,80.432,405.562Z" transform="translate(112.727 -248.876)" fill="#f8f8f8"/>
      <path id="Path_26951" data-name="Path 26951" d="M151.705,479.75a8.326,8.326,0,1,1-8.325,8.222A8.479,8.479,0,0,1,151.705,479.75Z" transform="translate(237.174 -119.787)" fill="#f8f8f8"/>
      <path id="Path_26952" data-name="Path 26952" d="M-5.19,385.51v8.683a8.268,8.268,0,0,0,1.281-3.919A7.914,7.914,0,0,0-5.19,385.51Z" transform="translate(5.19 -266.938)" fill="#f8f8f8"/>
      <path id="Path_26953" data-name="Path 26953" d="M118.824,429.218a8.312,8.312,0,1,1-8.273-8.248A8.4,8.4,0,0,1,118.824,429.218Z" transform="translate(172.874 -211.569)" fill="#f8f8f8"/>
      <path id="Path_26954" data-name="Path 26954" d="M157.039,514.343a8.352,8.352,0,1,1,8.4-8.222A8.467,8.467,0,0,1,157.039,514.343Z" transform="translate(245.544 -91.855)" fill="#f8f8f8"/>
      <path id="Path_26955" data-name="Path 26955" d="M95.5,426.311a8.351,8.351,0,1,1,8.171-8.427A8.487,8.487,0,0,1,95.5,426.311Z" transform="translate(149.09 -229.307)" fill="#f8f8f8"/>
      <path id="Path_26956" data-name="Path 26956" d="M80.338,398.62a8.236,8.236,0,1,1-8.248,8.35A8.422,8.422,0,0,1,80.338,398.62Z" transform="translate(125.859 -246.468)" fill="#f8f8f8"/>
      <path id="Path_26957" data-name="Path 26957" d="M124.311,450.237a8.227,8.227,0,1,1,8.145,8.427A8.458,8.458,0,0,1,124.311,450.237Z" transform="translate(207.397 -178.439)" fill="#f8f8f8"/>
      <path id="Path_26958" data-name="Path 26958" d="M147.64,459.762a8.236,8.236,0,1,1-8.53-8.017A8.462,8.462,0,0,1,147.64,459.762Z" transform="translate(218.11 -163.528)" fill="#f8f8f8"/>
      <path id="Path_26959" data-name="Path 26959" d="M154.346,469.664a8.133,8.133,0,1,1-8.043-8.043A8.232,8.232,0,0,1,154.346,469.664Z" transform="translate(228.899 -148.097)" fill="#f8f8f8"/>
      <path id="Path_26960" data-name="Path 26960" d="M125.764,448.647a8.134,8.134,0,1,1,7.992-8.094A8.282,8.282,0,0,1,125.764,448.647Z" transform="translate(196.749 -193.754)" fill="#f8f8f8"/>
      <path id="Path_26961" data-name="Path 26961" d="M31.709,397.517a8.069,8.069,0,1,1,7.941-8.069A8.171,8.171,0,0,1,31.709,397.517Z" transform="translate(50.002 -273.388)" fill="#f8f8f8"/>
      <path id="Path_26962" data-name="Path 26962" d="M31.87,390.939a8.083,8.083,0,1,1,7.992,8.094A8.153,8.153,0,0,1,31.87,390.939Z" transform="translate(63.057 -271.061)" fill="#f8f8f8"/>
      <path id="Path_26963" data-name="Path 26963" d="M56.285,392.5a8.018,8.018,0,1,1-7.915-8.12A8.03,8.03,0,0,1,56.285,392.5Z" transform="translate(76.142 -268.703)" fill="#f8f8f8"/>
      <path id="Path_26964" data-name="Path 26964" d="M111.587,419.434a8.085,8.085,0,1,1-7.864-8.222A8.17,8.17,0,0,1,111.587,419.434Z" transform="translate(162.284 -226.811)" fill="#f8f8f8"/>
      <path id="Path_26965" data-name="Path 26965" d="M166.5,497.536a8.083,8.083,0,1,1-7.94-8.145A8.17,8.17,0,0,1,166.5,497.536Z" transform="translate(248.025 -104.736)" fill="#f8f8f8"/>
      <path id="Path_26966" data-name="Path 26966" d="M167.391,489.319a7.711,7.711,0,1,1-7.582-7.838A7.56,7.56,0,0,1,167.391,489.319Z" transform="translate(250.587 -117.087)" fill="#f8f8f8"/>
      <path id="Path_26967" data-name="Path 26967" d="M72.666,395.109A7.814,7.814,0,1,1,64.9,387.45,7.607,7.607,0,0,1,72.666,395.109Z" transform="translate(102.358 -263.909)" fill="#f8f8f8"/>
      <path id="Path_26968" data-name="Path 26968" d="M56.449,385.92a7.89,7.89,0,1,1-7.787,8.069A7.758,7.758,0,0,1,56.449,385.92Z" transform="translate(89.272 -266.299)" fill="#f8f8f8"/>
      <path id="Path_26969" data-name="Path 26969" d="M14.419,385.107a7.6,7.6,0,0,1-7.684,7.761A7.775,7.775,0,1,1,6.76,377.32,7.581,7.581,0,0,1,14.419,385.107Z" transform="translate(11.529 -279.727)" fill="#f8f8f8"/>
      <path id="Path_26970" data-name="Path 26970" d="M126.5,430.494a7.89,7.89,0,1,1-7.992-7.864A7.773,7.773,0,0,1,126.5,430.494Z" transform="translate(186.177 -208.978)" fill="#f8f8f8"/>
      <path id="Path_26971" data-name="Path 26971" d="M14.926,378.48a7.852,7.852,0,0,1,.231,15.7,7.852,7.852,0,0,1-.231-15.7Z" transform="translate(24.52 -277.916)" fill="#f8f8f8"/>
      <path id="Path_26972" data-name="Path 26972" d="M172.737,507.384a7.7,7.7,0,1,1-7.4-7.992A7.623,7.623,0,0,1,172.737,507.384Z" transform="translate(258.971 -89.122)" fill="#f8f8f8"/>
      <path id="Path_26973" data-name="Path 26973" d="M96.167,408.109a7.954,7.954,0,1,1-8.017-7.889A7.888,7.888,0,0,1,96.167,408.109Z" transform="translate(138.616 -243.97)" fill="#f8f8f8"/>
      <path id="Path_26974" data-name="Path 26974" d="M119.324,420.509a7.7,7.7,0,1,1-7.736-7.659A7.6,7.6,0,0,1,119.324,420.509Z" transform="translate(175.576 -224.248)" fill="#f8f8f8"/>
      <path id="Path_26975" data-name="Path 26975" d="M160.819,479.384a7.89,7.89,0,1,1-8.043-7.812A7.773,7.773,0,0,1,160.819,479.384Z" transform="translate(239.766 -132.561)" fill="#f8f8f8"/>
      <path id="Path_26976" data-name="Path 26976" d="M96.293,401.81a7.711,7.711,0,1,1-7.582,7.838A7.576,7.576,0,0,1,96.293,401.81Z" transform="translate(151.81 -241.487)" fill="#f8f8f8"/>
      <path id="Path_26977" data-name="Path 26977" d="M23.4,395.837a7.954,7.954,0,1,1,8.017-7.889A7.873,7.873,0,0,1,23.4,395.837Z" transform="translate(37.512 -275.651)" fill="#f8f8f8"/>
      <path id="Path_26978" data-name="Path 26978" d="M73.1,388.98a7.7,7.7,0,1,1-7.659,7.736A7.6,7.6,0,0,1,73.1,388.98Z" transform="translate(115.475 -261.52)" fill="#f8f8f8"/>
      <path id="Path_26979" data-name="Path 26979" d="M161.856,470.861a7.609,7.609,0,1,1-7.556-7.531A7.725,7.725,0,0,1,161.856,470.861Z" transform="translate(242.265 -145.426)" fill="#f8f8f8"/>
      <path id="Path_26980" data-name="Path 26980" d="M147.218,453.451a7.673,7.673,0,1,1-7.454,7.966A7.613,7.613,0,0,1,147.218,453.451Z" transform="translate(231.518 -160.855)" fill="#f8f8f8"/>
      <path id="Path_26981" data-name="Path 26981" d="M-5.19,376.15v13.883a7.591,7.591,0,0,0,4.431-6.942A7.549,7.549,0,0,0-5.19,376.15Z" transform="translate(5.19 -281.554)" fill="#f8f8f8"/>
      <path id="Path_26982" data-name="Path 26982" d="M134.4,431.725a7.608,7.608,0,1,1-7.633-7.5A7.69,7.69,0,0,1,134.4,431.725Z" transform="translate(199.388 -206.495)" fill="#f8f8f8"/>
      <path id="Path_26983" data-name="Path 26983" d="M140.509,443.6a7.673,7.673,0,1,1-7.608,7.812A7.611,7.611,0,0,1,140.509,443.6Z" transform="translate(220.81 -176.234)" fill="#f8f8f8"/>
      <path id="Path_26984" data-name="Path 26984" d="M141.367,441.863a7.676,7.676,0,1,1-7.633-7.812A7.646,7.646,0,0,1,141.367,441.863Z" transform="translate(210.064 -191.146)" fill="#f8f8f8"/>
      <path id="Path_26985" data-name="Path 26985" d="M81.33,390.52a7.57,7.57,0,1,1-7.479,7.531A7.733,7.733,0,0,1,81.33,390.52Z" transform="translate(128.607 -259.116)" fill="#f8f8f8"/>
      <path id="Path_26986" data-name="Path 26986" d="M24.464,386.854a7.378,7.378,0,1,1-.128-14.754,7.378,7.378,0,0,1,.128,14.754Z" transform="translate(39.726 -287.878)" fill="#f8f8f8"/>
      <path id="Path_26987" data-name="Path 26987" d="M166.61,491.1a7.511,7.511,0,1,1-7.71,7.4A7.725,7.725,0,0,1,166.61,491.1Z" transform="translate(261.409 -102.066)" fill="#f8f8f8"/>
      <path id="Path_26988" data-name="Path 26988" d="M41.99,383.657a7.378,7.378,0,1,1,7.275,7.4A7.571,7.571,0,0,1,41.99,383.657Z" transform="translate(78.859 -281.351)" fill="#f8f8f8"/>
      <path id="Path_26989" data-name="Path 26989" d="M160.9,473.231a7.442,7.442,0,1,1-7.326,7.352A7.627,7.627,0,0,1,160.9,473.231Z" transform="translate(253.086 -129.969)" fill="#f8f8f8"/>
      <path id="Path_26990" data-name="Path 26990" d="M96.742,399.651a7.383,7.383,0,1,1-7.1-7.556A7.536,7.536,0,0,1,96.742,399.651Z" transform="translate(141.294 -256.668)" fill="#f8f8f8"/>
      <path id="Path_26991" data-name="Path 26991" d="M112.18,410.688a7.521,7.521,0,1,1-7.531-7.608A7.712,7.712,0,0,1,112.18,410.688Z" transform="translate(164.969 -239.504)" fill="#f8f8f8"/>
      <path id="Path_26992" data-name="Path 26992" d="M127.263,421.725a7.443,7.443,0,1,1-7.4-7.274A7.61,7.61,0,0,1,127.263,421.725Z" transform="translate(188.769 -221.75)" fill="#f8f8f8"/>
      <path id="Path_26993" data-name="Path 26993" d="M32.766,388.142a7.441,7.441,0,0,1-.154-14.882,7.441,7.441,0,0,1,.154,14.882Z" transform="translate(52.736 -286.067)" fill="#f8f8f8"/>
      <path id="Path_26994" data-name="Path 26994" d="M48.477,382.242a7.428,7.428,0,1,1-7.172-7.479A7.605,7.605,0,0,1,48.477,382.242Z" transform="translate(65.79 -283.727)" fill="#f8f8f8"/>
      <path id="Path_26995" data-name="Path 26995" d="M16.082,385.174A7.262,7.262,0,1,1,23.434,378,7.248,7.248,0,0,1,16.082,385.174Z" transform="translate(27.206 -290.142)" fill="#f8f8f8"/>
      <path id="Path_26996" data-name="Path 26996" d="M65.017,385.262a7.33,7.33,0,1,1-7.1-7.479A7.371,7.371,0,0,1,65.017,385.262Z" transform="translate(91.923 -279.011)" fill="#f8f8f8"/>
      <path id="Path_26997" data-name="Path 26997" d="M141.889,433.017a7.07,7.07,0,1,1-6.865-7.1A6.93,6.93,0,0,1,141.889,433.017Z" transform="translate(212.77 -203.842)" fill="#f8f8f8"/>
      <path id="Path_26998" data-name="Path 26998" d="M174.42,490.136a7.072,7.072,0,1,1-7.044-6.916A6.945,6.945,0,0,1,174.42,490.136Z" transform="translate(263.563 -114.369)" fill="#f8f8f8"/>
      <path id="Path_26999" data-name="Path 26999" d="M155.7,452.354a7.121,7.121,0,1,1-6.993-7.044A6.973,6.973,0,0,1,155.7,452.354Z" transform="translate(234.177 -173.564)" fill="#f8f8f8"/>
      <path id="Path_27000" data-name="Path 27000" d="M65.922,393.6a7.121,7.121,0,1,1,7.121-6.941A6.978,6.978,0,0,1,65.922,393.6Z" transform="translate(105.106 -276.541)" fill="#f8f8f8"/>
      <path id="Path_27001" data-name="Path 27001" d="M141.692,450.086a7.175,7.175,0,1,1,7.223-7.2A7.059,7.059,0,0,1,141.692,450.086Z" transform="translate(223.418 -188.509)" fill="#f8f8f8"/>
      <path id="Path_27002" data-name="Path 27002" d="M7.6,383.38a7.071,7.071,0,1,1,.231-14.139A7.071,7.071,0,1,1,7.6,383.38Z" transform="translate(14.274 -292.344)" fill="#f8f8f8"/>
      <path id="Path_27003" data-name="Path 27003" d="M168.846,514.129h7.684a7.018,7.018,0,1,0-7.684,0Z" transform="translate(271.98 -86.39)" fill="#f8f8f8"/>
      <path id="Path_27004" data-name="Path 27004" d="M119.745,411.882a7.034,7.034,0,1,1-6.865-7.121A6.868,6.868,0,0,1,119.745,411.882Z" transform="translate(178.306 -236.882)" fill="#f8f8f8"/>
      <path id="Path_27005" data-name="Path 27005" d="M97.645,393.721a7.023,7.023,0,1,1-7.172,6.762A6.869,6.869,0,0,1,97.645,393.721Z" transform="translate(154.556 -254.12)" fill="#f8f8f8"/>
      <path id="Path_27006" data-name="Path 27006" d="M162.48,462.344a7.07,7.07,0,1,1-6.788-7.172A6.947,6.947,0,0,1,162.48,462.344Z" transform="translate(244.92 -158.17)" fill="#f8f8f8"/>
      <path id="Path_27007" data-name="Path 27007" d="M74.11,394.829a6.955,6.955,0,1,1,7.018-6.89A6.826,6.826,0,0,1,74.11,394.829Z" transform="translate(118.255 -274.105)" fill="#f8f8f8"/>
      <path id="Path_27008" data-name="Path 27008" d="M-4.755,367.8c-.154,0-.282.051-.435.051v13.755a3.8,3.8,0,0,0,.538.051,6.838,6.838,0,0,0,6.967-6.993A6.833,6.833,0,0,0-4.755,367.8Z" transform="translate(5.19 -294.593)" fill="#f8f8f8"/>
      <path id="Path_27009" data-name="Path 27009" d="M120.941,422.895a6.935,6.935,0,1,1,6.839,7.1A6.857,6.857,0,0,1,120.941,422.895Z" transform="translate(202.135 -219.129)" fill="#f8f8f8"/>
      <path id="Path_27010" data-name="Path 27010" d="M105.546,408.9a6.8,6.8,0,1,1,6.967-6.634A6.942,6.942,0,0,1,105.546,408.9Z" transform="translate(167.736 -251.653)" fill="#f8f8f8"/>
      <path id="Path_27011" data-name="Path 27011" d="M175.471,481.758a6.8,6.8,0,1,1-6.813-6.788A6.923,6.923,0,0,1,175.471,481.758Z" transform="translate(266.046 -127.251)" fill="#f8f8f8"/>
      <path id="Path_27012" data-name="Path 27012" d="M173.9,492.861a6.827,6.827,0,1,1-6.66,6.865A6.957,6.957,0,0,1,173.9,492.861Z" transform="translate(274.431 -99.317)" fill="#f8f8f8"/>
      <path id="Path_27013" data-name="Path 27013" d="M89.039,389.136a6.866,6.866,0,1,1-6.916-6.685A6.966,6.966,0,0,1,89.039,389.136Z" transform="translate(130.887 -271.717)" fill="#f8f8f8"/>
      <path id="Path_27014" data-name="Path 27014" d="M162.03,478.928a6.93,6.93,0,1,1,6.788-7.147A6.854,6.854,0,0,1,162.03,478.928Z" transform="translate(255.257 -142.709)" fill="#f8f8f8"/>
      <path id="Path_27015" data-name="Path 27015" d="M120.893,406.35a6.776,6.776,0,1,1-6.762,6.89A6.986,6.986,0,0,1,120.893,406.35Z" transform="translate(191.502 -234.398)" fill="#f8f8f8"/>
      <path id="Path_27016" data-name="Path 27016" d="M156.574,444.051a6.737,6.737,0,1,1-6.916-6.66A6.914,6.914,0,0,1,156.574,444.051Z" transform="translate(236.738 -185.932)" fill="#f8f8f8"/>
      <path id="Path_27017" data-name="Path 27017" d="M163.051,453.579a6.686,6.686,0,1,1-6.557-6.608A6.884,6.884,0,0,1,163.051,453.579Z" transform="translate(247.012 -170.972)" fill="#f8f8f8"/>
      <path id="Path_27018" data-name="Path 27018" d="M90.578,384.032a6.628,6.628,0,1,1-6.813,6.352A6.807,6.807,0,0,1,90.578,384.032Z" transform="translate(144.077 -269.252)" fill="#f8f8f8"/>
      <path id="Path_27019" data-name="Path 27019" d="M142.773,440.942a6.687,6.687,0,1,1,6.839-6.327A6.864,6.864,0,0,1,142.773,440.942Z" transform="translate(226.05 -201.265)" fill="#f8f8f8"/>
      <path id="Path_27020" data-name="Path 27020" d="M42.1,367a6.685,6.685,0,1,1-6.711,6.48A6.862,6.862,0,0,1,42.1,367Z" transform="translate(68.551 -295.841)" fill="#f8f8f8"/>
      <path id="Path_27021" data-name="Path 27021" d="M33.807,365.5a6.686,6.686,0,1,1-.154,13.371,6.686,6.686,0,1,1,.154-13.371Z" transform="translate(55.511 -298.184)" fill="#f8f8f8"/>
      <path id="Path_27022" data-name="Path 27022" d="M25.319,377.3a6.636,6.636,0,1,1,.231-13.268,6.636,6.636,0,0,1-.231,13.268Z" transform="translate(42.508 -300.481)" fill="#f8f8f8"/>
      <path id="Path_27023" data-name="Path 27023" d="M162.975,469.867a6.486,6.486,0,1,1,6.634-6.429A6.518,6.518,0,0,1,162.975,469.867Z" transform="translate(257.846 -155.473)" fill="#f8f8f8"/>
      <path id="Path_27024" data-name="Path 27024" d="M136.053,430.771a6.481,6.481,0,1,1,6.4-6.66A6.494,6.494,0,0,1,136.053,430.771Z" transform="translate(215.455 -216.504)" fill="#f8f8f8"/>
      <path id="Path_27025" data-name="Path 27025" d="M58.585,369.76a6.481,6.481,0,1,1-6.4,6.66A6.494,6.494,0,0,1,58.585,369.76Z" transform="translate(94.769 -291.532)" fill="#f8f8f8"/>
      <path id="Path_27026" data-name="Path 27026" d="M50.46,368.241a6.571,6.571,0,1,1-6.66,6.48A6.66,6.66,0,0,1,50.46,368.241Z" transform="translate(81.685 -293.906)" fill="#f8f8f8"/>
      <path id="Path_27027" data-name="Path 27027" d="M23.687,368.97a6.494,6.494,0,1,1-6.711-6.378A6.478,6.478,0,0,1,23.687,368.97Z" transform="translate(30.001 -302.729)" fill="#f8f8f8"/>
      <path id="Path_27028" data-name="Path 27028" d="M14.95,367.476A6.086,6.086,0,0,1,8.674,373.7a6.25,6.25,0,0,1,.051-12.5A6.1,6.1,0,0,1,14.95,367.476Z" transform="translate(17.119 -304.897)" fill="#f8f8f8"/>
      <path id="Path_27029" data-name="Path 27029" d="M120.13,403.456a6.341,6.341,0,1,1-6.019-6.481A6.221,6.221,0,0,1,120.13,403.456Z" transform="translate(181.072 -249.049)" fill="#f8f8f8"/>
      <path id="Path_27030" data-name="Path 27030" d="M175.416,497.4a6.355,6.355,0,1,1,6.173-6.327A6.238,6.238,0,0,1,175.416,497.4Z" transform="translate(277.039 -112.074)" fill="#f8f8f8"/>
      <path id="Path_27031" data-name="Path 27031" d="M73.2,377.452a6.29,6.29,0,1,1-6.327-6.122A6.167,6.167,0,0,1,73.2,377.452Z" transform="translate(107.949 -289.08)" fill="#f8f8f8"/>
      <path id="Path_27032" data-name="Path 27032" d="M186.461,511.316a6.61,6.61,0,0,0,.359-2.049,6.25,6.25,0,1,0-12.5-.154,6.848,6.848,0,0,0,.359,2.2Z" transform="translate(285.487 -83.577)" fill="#f8f8f8"/>
      <path id="Path_27033" data-name="Path 27033" d="M104.745,391.742a6.24,6.24,0,1,1-6.4-6.071A6.135,6.135,0,0,1,104.745,391.742Z" transform="translate(157.368 -266.69)" fill="#f8f8f8"/>
      <path id="Path_27034" data-name="Path 27034" d="M163.536,445.008a6.058,6.058,0,1,1-5.968-6.147A6.163,6.163,0,0,1,163.536,445.008Z" transform="translate(249.729 -183.635)" fill="#f8f8f8"/>
      <path id="Path_27035" data-name="Path 27035" d="M128.769,408.061a6.213,6.213,0,1,1-6.045,6.48A6.093,6.093,0,0,1,128.769,408.061Z" transform="translate(204.912 -231.729)" fill="#f8f8f8"/>
      <path id="Path_27036" data-name="Path 27036" d="M169.724,466.85a6.213,6.213,0,1,1-6.122,6.378A6.077,6.077,0,0,1,169.724,466.85Z" transform="translate(268.746 -139.93)" fill="#f8f8f8"/>
      <path id="Path_27037" data-name="Path 27037" d="M-.554,359.763a6.027,6.027,0,0,0-4.636,1.87v8.478a5.993,5.993,0,0,0,4.354,1.87,6.1,6.1,0,0,0,6.173-5.968A6.1,6.1,0,0,0-.554,359.763Z" transform="translate(5.19 -307.149)" fill="#f8f8f8"/>
      <path id="Path_27038" data-name="Path 27038" d="M156.676,435.458a6.059,6.059,0,1,1-5.968-6.147A6.164,6.164,0,0,1,156.676,435.458Z" transform="translate(239.017 -198.547)" fill="#f8f8f8"/>
      <path id="Path_27039" data-name="Path 27039" d="M81.07,379.171a6.178,6.178,0,1,1-6.122-6.3A6.092,6.092,0,0,1,81.07,379.171Z" transform="translate(120.593 -286.675)" fill="#f8f8f8"/>
      <path id="Path_27040" data-name="Path 27040" d="M176.652,488.825a6.033,6.033,0,1,1,5.943-6.224A6.208,6.208,0,0,1,176.652,488.825Z" transform="translate(279.569 -124.457)" fill="#f8f8f8"/>
      <path id="Path_27041" data-name="Path 27041" d="M143.638,419.49a5.994,5.994,0,1,1-5.917,5.866A6.173,6.173,0,0,1,143.638,419.49Z" transform="translate(228.336 -213.881)" fill="#f8f8f8"/>
      <path id="Path_27042" data-name="Path 27042" d="M83.277,374.41a6.036,6.036,0,1,1-6.148,6.019A6.209,6.209,0,0,1,83.277,374.41Z" transform="translate(133.729 -284.271)" fill="#f8f8f8"/>
      <path id="Path_27043" data-name="Path 27043" d="M112.709,393.152a5.995,5.995,0,1,1-5.917-5.891A6.173,6.173,0,0,1,112.709,393.152Z" transform="translate(170.563 -264.206)" fill="#f8f8f8"/>
      <path id="Path_27044" data-name="Path 27044" d="M170.3,454.622a5.995,5.995,0,1,1-5.917-5.891A6.24,6.24,0,0,1,170.3,454.622Z" transform="translate(260.487 -168.224)" fill="#f8f8f8"/>
      <path id="Path_27045" data-name="Path 27045" d="M127.9,404.218a5.981,5.981,0,1,1-5.866-5.917A6.173,6.173,0,0,1,127.9,404.218Z" transform="translate(194.328 -246.968)" fill="#f8f8f8"/>
      <path id="Path_27046" data-name="Path 27046" d="M182.047,494.671a6.036,6.036,0,1,1-6.148,6.02A6.209,6.209,0,0,1,182.047,494.671Z" transform="translate(287.954 -96.491)" fill="#f8f8f8"/>
      <path id="Path_27047" data-name="Path 27047" d="M176.726,464.686a5.725,5.725,0,1,1-5.533-5.994A5.732,5.732,0,0,1,176.726,464.686Z" transform="translate(271.375 -152.673)" fill="#f8f8f8"/>
      <path id="Path_27048" data-name="Path 27048" d="M142.729,415.555a5.741,5.741,0,1,1-5.763-5.815A5.731,5.731,0,0,1,142.729,415.555Z" transform="translate(218.231 -229.104)" fill="#f8f8f8"/>
      <path id="Path_27049" data-name="Path 27049" d="M40.211,363.171a5.635,5.635,0,1,1-5.482-5.61A5.512,5.512,0,0,1,40.211,363.171Z" transform="translate(58.482 -310.583)" fill="#f8f8f8"/>
      <path id="Path_27050" data-name="Path 27050" d="M48.572,364.872a5.638,5.638,0,1,1-5.251-5.814A5.546,5.546,0,0,1,48.572,364.872Z" transform="translate(71.534 -308.262)" fill="#f8f8f8"/>
      <path id="Path_27051" data-name="Path 27051" d="M56.823,366.1a5.572,5.572,0,1,1-5.533-5.533A5.411,5.411,0,0,1,56.823,366.1Z" transform="translate(84.62 -305.881)" fill="#f8f8f8"/>
      <path id="Path_27052" data-name="Path 27052" d="M26.04,356.091a5.572,5.572,0,1,1,.1,11.142,5.572,5.572,0,0,1-.1-11.142Z" transform="translate(45.475 -312.878)" fill="#f8f8f8"/>
      <path id="Path_27053" data-name="Path 27053" d="M91.277,376.06a5.635,5.635,0,1,1-5.635,5.456A5.523,5.523,0,0,1,91.277,376.06Z" transform="translate(147.015 -281.694)" fill="#f8f8f8"/>
      <path id="Path_27054" data-name="Path 27054" d="M114.571,388.961a5.47,5.47,0,1,1-5.277,5.738A5.351,5.351,0,0,1,114.571,388.961Z" transform="translate(183.941 -261.553)" fill="#f8f8f8"/>
      <path id="Path_27055" data-name="Path 27055" d="M17.591,354.641a5.47,5.47,0,1,1,.154,10.937,5.47,5.47,0,0,1-.154-10.937Z" transform="translate(32.511 -315.142)" fill="#f8f8f8"/>
      <path id="Path_27056" data-name="Path 27056" d="M54.085,367.267a5.474,5.474,0,1,1,5.251,5.789A5.329,5.329,0,0,1,54.085,367.267Z" transform="translate(97.733 -303.485)" fill="#f8f8f8"/>
      <path id="Path_27057" data-name="Path 27057" d="M135.289,405.516a5.38,5.38,0,1,1-5.1-5.482A5.334,5.334,0,0,1,135.289,405.516Z" transform="translate(207.741 -244.27)" fill="#f8f8f8"/>
      <path id="Path_27058" data-name="Path 27058" d="M183.111,474a5.431,5.431,0,1,1-5.3-5.353A5.343,5.343,0,0,1,183.111,474Z" transform="translate(282.254 -137.12)" fill="#f8f8f8"/>
      <path id="Path_27059" data-name="Path 27059" d="M183.245,497.467a5.47,5.47,0,1,1,5.277-5.738A5.351,5.351,0,0,1,183.245,497.467Z" transform="translate(290.624 -109.201)" fill="#f8f8f8"/>
      <path id="Path_27060" data-name="Path 27060" d="M104.82,383.04a5.355,5.355,0,1,1-10.707-.231,5.355,5.355,0,0,1,10.707.231Z" transform="translate(160.24 -279.197)" fill="#f8f8f8"/>
      <path id="Path_27061" data-name="Path 27061" d="M68.006,363.341a5.373,5.373,0,1,1-5.533,5.123A5.387,5.387,0,0,1,68.006,363.341Z" transform="translate(110.835 -301.557)" fill="#f8f8f8"/>
      <path id="Path_27062" data-name="Path 27062" d="M193.258,508.444a5.33,5.33,0,0,0-4.918-3.663,5.394,5.394,0,0,0-5.2,3.663Z" transform="translate(299.259 -80.705)" fill="#f8f8f8"/>
      <path id="Path_27063" data-name="Path 27063" d="M163.857,436.547a5.329,5.329,0,1,1-5.2-5.456A5.426,5.426,0,0,1,163.857,436.547Z" transform="translate(252.507 -195.769)" fill="#f8f8f8"/>
      <path id="Path_27064" data-name="Path 27064" d="M15,358.659A5.358,5.358,0,1,1,9.854,353.2,5.369,5.369,0,0,1,15,358.659Z" transform="translate(19.987 -317.392)" fill="#f8f8f8"/>
      <path id="Path_27065" data-name="Path 27065" d="M149.822,416.517a5.136,5.136,0,1,1-5.225-5.046A5.282,5.282,0,0,1,149.822,416.517Z" transform="translate(231.194 -226.404)" fill="#f8f8f8"/>
      <path id="Path_27066" data-name="Path 27066" d="M156.917,426.37a5.43,5.43,0,0,1-5.225,5.456,5.291,5.291,0,0,1-5.328-5.328,5.085,5.085,0,0,1,4.995-5.225A5.357,5.357,0,0,1,156.917,426.37Z" transform="translate(241.824 -211.13)" fill="#f8f8f8"/>
      <path id="Path_27067" data-name="Path 27067" d="M165.272,451.229a5.432,5.432,0,0,1-5.2-5.482,5.3,5.3,0,0,1,5.558-5.072,5.123,5.123,0,0,1,4.995,5.251A5.292,5.292,0,0,1,165.272,451.229Z" transform="translate(263.234 -180.84)" fill="#f8f8f8"/>
      <path id="Path_27068" data-name="Path 27068" d="M6.391,356.96a5.359,5.359,0,0,1-5.1,5.2,5.2,5.2,0,1,1,0-10.4A5.359,5.359,0,0,1,6.391,356.96Z" transform="translate(7.031 -319.638)" fill="#f8f8f8"/>
      <path id="Path_27069" data-name="Path 27069" d="M81.089,369.967a5.266,5.266,0,1,1-5.225-5.1A5.435,5.435,0,0,1,81.089,369.967Z" transform="translate(123.468 -299.167)" fill="#f8f8f8"/>
      <path id="Path_27070" data-name="Path 27070" d="M177.272,455.786a5.137,5.137,0,1,1-5.046-5.225A5.282,5.282,0,0,1,177.272,455.786Z" transform="translate(274.056 -165.366)" fill="#f8f8f8"/>
      <path id="Path_27071" data-name="Path 27071" d="M189.734,496.57A4.931,4.931,0,0,1,194.55,502a4.689,4.689,0,0,1-5.2,4.457,4.8,4.8,0,0,1-4.636-5.4C185.1,498.081,186.993,496.7,189.734,496.57Z" transform="translate(301.655 -93.523)" fill="#f8f8f8"/>
      <path id="Path_27072" data-name="Path 27072" d="M184.182,488.761a5.152,5.152,0,0,1-4.918-5.3,5.056,5.056,0,0,1,5.379-4.79,4.912,4.912,0,0,1,4.713,5.072A5.048,5.048,0,0,1,184.182,488.761Z" transform="translate(293.196 -121.524)" fill="#f8f8f8"/>
      <path id="Path_27073" data-name="Path 27073" d="M122.67,390.612a5.168,5.168,0,0,1,5.251,4.969,5.062,5.062,0,0,1-5.072,5.123,4.894,4.894,0,0,1-5.02-4.764A5.023,5.023,0,0,1,122.67,390.612Z" transform="translate(197.23 -258.977)" fill="#f8f8f8"/>
      <path id="Path_27074" data-name="Path 27074" d="M107.42,379.31a4.912,4.912,0,0,1,5.1,5.174,4.72,4.72,0,0,1-4.969,4.739,4.958,4.958,0,0,1-.128-9.913Z" transform="translate(173.521 -276.62)" fill="#f8f8f8"/>
      <path id="Path_27075" data-name="Path 27075" d="M88.818,371.279c-.2,2.946-1.716,4.713-4.713,4.918a4.66,4.66,0,0,1-5.02-4.944c.154-3,1.87-4.713,4.841-4.713C86.948,366.514,88.536,368.307,88.818,371.279Z" transform="translate(136.769 -296.559)" fill="#f8f8f8"/>
      <path id="Path_27076" data-name="Path 27076" d="M91.908,368.09c2.843.2,4.662,1.588,4.764,4.457a4.563,4.563,0,0,1-9.119.359C87.426,370.037,89.168,368.551,91.908,368.09Z" transform="translate(149.995 -294.139)" fill="#f8f8f8"/>
      <path id="Path_27077" data-name="Path 27077" d="M174.01,465.338c.179-3.074,2.408-5.046,5.148-4.739,3.022.333,4.534,2.2,4.252,5.2-.256,2.843-2.075,4.329-4.867,4.2C175.5,469.82,174.112,467.925,174.01,465.338Z" transform="translate(285.002 -149.739)" fill="#f8f8f8"/>
      <path id="Path_27078" data-name="Path 27078" d="M137.614,401.76c2.971.333,4.713,1.9,4.611,4.918s-1.921,4.662-4.944,4.534c-2.818-.1-4.431-1.819-4.431-4.662C132.85,403.527,134.643,402.016,137.614,401.76Z" transform="translate(220.733 -241.565)" fill="#f8f8f8"/>
      <path id="Path_27079" data-name="Path 27079" d="M190.365,475.851c-1.691,1.127-3.3,3-5.123,3.227-2.536.333-4.278-1.665-4.2-4.3s1.87-4.585,4.406-4.124c1.819.333,3.33,2.228,4.969,3.458C190.391,474.673,190.391,475.262,190.365,475.851Z" transform="translate(295.978 -134.1)" fill="#f8f8f8"/>
      <path id="Path_27080" data-name="Path 27080" d="M195.91,493.669c-1.665,1.2-3.176,2.946-5.02,3.484-2.254.64-4.764-2.1-4.508-4.508.282-2.613,1.947-4.585,4.483-4.124,1.819.333,3.381,2.2,5.046,3.407Z" transform="translate(304.291 -106.197)" fill="#f8f8f8"/>
      <path id="Path_27081" data-name="Path 27081" d="M120.72,386.249c-1.665,1.2-3.176,2.946-5.02,3.484-2.254.64-4.764-2.1-4.508-4.508.282-2.613,1.947-4.585,4.483-4.124,1.819.333,3.381,2.228,5.046,3.407C120.694,385.071,120.72,385.66,120.72,386.249Z" transform="translate(186.885 -273.928)" fill="#f8f8f8"/>
      <path id="Path_27082" data-name="Path 27082" d="M32.059,353.639c-1.716,1.153-3.279,2.843-5.149,3.279-2.28.563-4.687-2.305-4.329-4.662.384-2.587,2.126-4.508,4.636-3.97,1.819.384,3.279,2.357,4.918,3.612C32.085,352.486,32.085,353.05,32.059,353.639Z" transform="translate(48.499 -325.205)" fill="#f8f8f8"/>
      <path id="Path_27083" data-name="Path 27083" d="M171.474,438.016c-1.639,1.255-3.1,3.023-4.944,3.612-2.228.717-4.79-1.972-4.636-4.38.179-2.638,1.844-4.611,4.38-4.252,1.844.282,3.432,2.126,5.149,3.279C171.448,436.863,171.474,437.453,171.474,438.016Z" transform="translate(266.074 -192.858)" fill="#f8f8f8"/>
      <path id="Path_27084" data-name="Path 27084" d="M48.421,354.267c-.461,3.97-1.9,5.789-4.764,5.763a4.148,4.148,0,0,1-4.406-4.329c-.051-2.843,1.742-4.867,4.483-4.483C45.577,351.5,47.14,353.421,48.421,354.267Z" transform="translate(74.58 -320.556)" fill="#f8f8f8"/>
      <path id="Path_27085" data-name="Path 27085" d="M164.575,428.457c-1.691,1.153-3.253,2.869-5.123,3.356-2.254.589-4.713-2.228-4.406-4.611.359-2.613,2.049-4.534,4.585-4.022,1.819.359,3.3,2.305,4.969,3.535C164.6,427.3,164.6,427.868,164.575,428.457Z" transform="translate(255.35 -208.247)" fill="#f8f8f8"/>
      <path id="Path_27086" data-name="Path 27086" d="M129.94,401.756c-1.2-1.665-3.125-3.176-3.432-4.995-.435-2.536,1.511-4.329,4.15-4.38s4.636,1.691,4.3,4.226c-.256,1.819-2.1,3.407-3.253,5.123C131.118,401.73,130.529,401.756,129.94,401.756Z" transform="translate(210.734 -256.212)" fill="#f8f8f8"/>
      <path id="Path_27087" data-name="Path 27087" d="M57.152,357.94c-1.665,1.178-3.2,2.92-5.072,3.432-2.254.615-4.739-2.152-4.457-4.534.307-2.613,2-4.559,4.534-4.073,1.819.333,3.356,2.254,5.02,3.458C57.178,356.787,57.178,357.351,57.152,357.94Z" transform="translate(87.621 -318.184)" fill="#f8f8f8"/>
      <path id="Path_27088" data-name="Path 27088" d="M34.046,349.57c3.945.487,5.789,1.921,5.738,4.79a4.148,4.148,0,0,1-4.354,4.38c-2.843.026-4.867-1.793-4.457-4.508C31.254,352.388,33.175,350.8,34.046,349.57Z" transform="translate(61.573 -323.057)" fill="#f8f8f8"/>
      <path id="Path_27089" data-name="Path 27089" d="M157.432,418.148c-1.639,1.2-3.125,3.125-4.918,3.432a3.52,3.52,0,0,1-4.175-4.124c.307-1.639,2.408-3.945,3.868-4.073,1.614-.128,3.407,1.87,5.149,2.946C157.381,416.944,157.406,417.533,157.432,418.148Z" transform="translate(244.819 -223.424)" fill="#f8f8f8"/>
      <path id="Path_27090" data-name="Path 27090" d="M59.354,363.38c-1.127-1.665-3-3.253-3.253-5.046a3.512,3.512,0,0,1,4.278-4c1.614.359,3.842,2.561,3.893,4.022.077,1.614-2,3.33-3.125,5.02Z" transform="translate(100.839 -315.76)" fill="#f8f8f8"/>
      <path id="Path_27091" data-name="Path 27091" d="M23.41,351.9c-1.691,1.1-3.33,2.92-5.123,3.125a3.515,3.515,0,0,1-3.893-4.38c.41-1.614,2.664-3.765,4.124-3.791,1.614-.026,3.3,2.075,4.944,3.253C23.435,350.692,23.435,351.281,23.41,351.9Z" transform="translate(35.58 -327.304)" fill="#f8f8f8"/>
      <path id="Path_27092" data-name="Path 27092" d="M177.776,447.748c-1.691,1.05-3.458,3.048-5.046,2.92-1.434-.128-3.509-2.434-3.765-4.047a3.433,3.433,0,0,1,4.252-3.945c1.691.333,3.074,2.177,4.585,3.33C177.8,446.57,177.776,447.159,177.776,447.748Z" transform="translate(277.036 -177.795)" fill="#f8f8f8"/>
      <path id="Path_27093" data-name="Path 27093" d="M101.236,369.627c.973,1.614,2.587,3.151,2.818,4.841.307,2.485-1.562,3.945-4.1,3.842-2.561-.1-4.252-1.767-3.74-4.175.359-1.69,2.1-3.074,3.253-4.585C100.032,369.576,100.647,369.6,101.236,369.627Z" transform="translate(163.387 -291.859)" fill="#f8f8f8"/>
      <path id="Path_27094" data-name="Path 27094" d="M184.245,457.517c-1.511.948-2.92,2.459-4.508,2.715-2.536.359-4-1.383-3.893-3.97.1-2.613,1.793-4.175,4.226-3.612,1.563.359,2.843,2.024,4.252,3.1Z" transform="translate(287.857 -162.282)" fill="#f8f8f8"/>
      <path id="Path_27095" data-name="Path 27095" d="M146.325,403.34c1,1.46,2.587,2.818,2.869,4.406.461,2.485-1.2,4.047-3.817,4.047s-4.252-1.588-3.765-4.073c.307-1.588,1.9-2.92,2.92-4.38Z" transform="translate(234.281 -239.098)" fill="#f8f8f8"/>
      <path id="Path_27096" data-name="Path 27096" d="M9.219,353.838c-.973-1.486-2.536-2.869-2.792-4.457-.41-2.51,1.306-4.022,3.893-3.97,2.613.051,4.2,1.691,3.688,4.15-.333,1.588-1.972,2.894-3.023,4.329C10.4,353.863,9.808,353.838,9.219,353.838Z" transform="translate(23.235 -329.554)" fill="#f8f8f8"/>
      <path id="Path_27097" data-name="Path 27097" d="M72.915,360.666c-1.562,1.076-3,2.766-4.687,3.048-2.459.435-4.021-1.332-4.047-3.893s1.537-4.354,4-3.945c1.691.282,3.176,1.947,4.739,3C72.915,359.462,72.915,360.076,72.915,360.666Z" transform="translate(113.508 -313.302)" fill="#f8f8f8"/>
      <path id="Path_27098" data-name="Path 27098" d="M80.9,361.775c-1.434,1.05-2.946,3-4.278,2.869-1.434-.128-2.664-2.2-4-3.432,1.229-1.332,2.305-3.509,3.714-3.74,1.332-.231,3,1.614,4.508,2.536C80.852,360.6,80.878,361.186,80.9,361.775Z" transform="translate(126.702 -310.749)" fill="#f8f8f8"/>
      <path id="Path_27099" data-name="Path 27099" d="M196.09,484.969c-1.511.922-3.1,2.664-4.534,2.536-1.281-.1-3.509-2.433-3.33-3.432.256-1.46,2.177-3.484,3.586-3.637,1.306-.154,2.894,1.793,4.329,2.792C196.116,483.791,196.09,484.38,196.09,484.969Z" transform="translate(307.184 -118.731)" fill="#f8f8f8"/>
      <path id="Path_27100" data-name="Path 27100" d="M197.208,507.52c-1.793-2.433-3.688-3.893-3.586-5.149.128-1.358,2.152-2.536,3.33-3.791,1.255,1.178,3.33,2.254,3.535,3.612C200.666,503.447,198.873,504.984,197.208,507.52Z" transform="translate(315.62 -90.385)" fill="#f8f8f8"/>
      <path id="Path_27101" data-name="Path 27101" d="M7.092,347.632c-2.433,1.716-4.047,3.688-5.2,3.432-1.486-.307-2.587-2.382-3.842-3.714,1.281-1.178,2.51-3.176,3.868-3.279C3.25,343.995,4.71,345.864,7.092,347.632Z" transform="translate(10.249 -331.647)" fill="#f8f8f8"/>
      <path id="Path_27102" data-name="Path 27102" d="M128.8,386.625c-2.485,1.614-4.175,3.509-5.3,3.227-1.46-.384-2.485-2.485-3.688-3.868,1.332-1.127,2.638-3.074,4-3.125C125.112,382.835,126.5,384.781,128.8,386.625Z" transform="translate(200.372 -271.076)" fill="#f8f8f8"/>
      <path id="Path_27103" data-name="Path 27103" d="M112.146,375.817c-1.409.9-3,2.664-4.226,2.459-1.306-.23-3-2.229-3.176-3.637-.128-.922,2.126-3.023,3.33-3.048,1.358-.026,2.741,1.691,4.124,2.664C112.171,374.766,112.171,375.279,112.146,375.817Z" transform="translate(176.837 -288.674)" fill="#f8f8f8"/>
      <path id="Path_27104" data-name="Path 27104" d="M84.567,367.009c-1.665-2.152-3.432-3.458-3.356-4.662.077-1.255,1.9-2.433,2.946-3.637,1.255,1.153,3.176,2.126,3.509,3.484C87.9,363.244,86.1,364.781,84.567,367.009Z" transform="translate(140.098 -308.785)" fill="#f8f8f8"/>
      <path id="Path_27105" data-name="Path 27105" d="M186.883,462.29c.973,1.358,2.843,2.818,2.715,4.047a5.088,5.088,0,0,1-3.432,3.407c-.948.179-3.151-1.921-3.253-3.1-.1-1.358,1.511-2.843,2.382-4.278C185.833,462.315,186.371,462.315,186.883,462.29Z" transform="translate(298.897 -147.05)" fill="#f8f8f8"/>
      <path id="Path_27106" data-name="Path 27106" d="M137.475,401.4c-.948-1.383-2.766-2.895-2.587-4.124.179-1.332,2.126-3.074,3.509-3.3.922-.154,3.1,2,3.151,3.2.077,1.358-1.588,2.818-2.51,4.226Z" transform="translate(223.895 -253.733)" fill="#f8f8f8"/>
      <path id="Path_27107" data-name="Path 27107" d="M92.4,359.89c1.434,1.972,2.946,3.125,2.869,4.15-.1,1.076-1.716,2.024-2.664,3.048-1-.948-2.69-1.793-2.843-2.869C89.6,363.194,91.063,361.939,92.4,359.89Z" transform="translate(153.428 -306.943)" fill="#f8f8f8"/>
      <path id="Path_27108" data-name="Path 27108" d="M178.328,437.625c-2.28,1.486-3.612,3.022-4.662,2.843a4.436,4.436,0,0,1-2.792-3.1c-.128-.768,1.767-2.613,2.792-2.638C174.844,434.7,176.074,436.139,178.328,437.625Z" transform="translate(280.096 -190.084)" fill="#f8f8f8"/>
      <path id="Path_27109" data-name="Path 27109" d="M130.87,391.768c-1.332-2.049-2.766-3.3-2.613-4.329.154-1.076,1.819-1.921,2.843-2.869.948,1,2.561,1.972,2.664,3.048C133.815,388.643,132.3,389.821,130.87,391.768Z" transform="translate(213.543 -268.406)" fill="#f8f8f8"/>
      <path id="Path_27110" data-name="Path 27110" d="M164.584,418.123c-2.228,1.537-3.535,3.1-4.585,2.946a4.384,4.384,0,0,1-2.843-3.022c-.154-.768,1.691-2.664,2.715-2.715C161.023,415.28,162.278,416.688,164.584,418.123Z" transform="translate(258.671 -220.377)" fill="#f8f8f8"/>
      <path id="Path_27111" data-name="Path 27111" d="M166.7,424.53c1.588,2.049,3.3,3.33,3.125,4.278-.231,1.281-1.921,2.28-2.971,3.407-1.025-1.025-2.741-1.972-2.869-3.1C163.833,428.014,165.319,426.707,166.7,424.53Z" transform="translate(269.334 -206.011)" fill="#f8f8f8"/>
      <path id="Path_27112" data-name="Path 27112" d="M43.894,349.98c-1.178-1.767-2.587-3-2.382-3.765.307-1.076,1.819-1.844,2.792-2.715.794.948,2.2,1.9,2.228,2.894C46.584,347.317,45.2,348.29,43.894,349.98Z" transform="translate(78.082 -332.535)" fill="#f8f8f8"/>
      <path id="Path_27113" data-name="Path 27113" d="M152.78,412.354c-1.229-2.1-2.613-3.407-2.408-4.38a4.108,4.108,0,0,1,3.023-2.382c.717-.077,2.331,1.767,2.28,2.689C155.649,409.382,154.266,410.407,152.78,412.354Z" transform="translate(248.062 -235.586)" fill="#f8f8f8"/>
      <path id="Path_27114" data-name="Path 27114" d="M202.24,493.045c-1.947,1.46-3.1,2.971-4.073,2.869a4.146,4.146,0,0,1-2.741-2.715c-.154-.717,1.486-2.536,2.408-2.587C198.935,490.535,200.139,491.816,202.24,493.045Z" transform="translate(318.427 -102.832)" fill="#f8f8f8"/>
      <path id="Path_27115" data-name="Path 27115" d="M120.176,376.117c-2.075,1.306-3.33,2.715-4.3,2.536a4.193,4.193,0,0,1-2.51-2.946c-.1-.692,1.691-2.382,2.638-2.357C117.1,373.35,118.2,374.708,120.176,376.117Z" transform="translate(190.298 -285.926)" fill="#f8f8f8"/>
      <path id="Path_27116" data-name="Path 27116" d="M189.46,475.605c1.947-1.46,2.971-2.843,4.1-2.895.922-.051,2.766,1.563,2.69,2.28a4.062,4.062,0,0,1-2.382,3.022C192.892,478.218,191.56,476.86,189.46,475.605Z" transform="translate(309.127 -130.78)" fill="#f8f8f8"/>
      <path id="Path_27117" data-name="Path 27117" d="M184.628,447.247c-2,1.383-3.2,2.843-4.175,2.715a4.164,4.164,0,0,1-2.638-2.818c-.128-.692,1.588-2.459,2.51-2.485C181.451,444.635,182.6,445.941,184.628,447.247Z" transform="translate(290.932 -174.579)" fill="#f8f8f8"/>
      <path id="Path_27118" data-name="Path 27118" d="M39.529,344.852c-1.793,1.127-3.074,2.51-3.817,2.254-1.076-.333-1.767-1.87-2.613-2.894.973-.768,1.947-2.152,2.946-2.152C36.942,342.086,37.89,343.494,39.529,344.852Z" transform="translate(64.978 -334.783)" fill="#f8f8f8"/>
      <path id="Path_27119" data-name="Path 27119" d="M22.095,341.142c-1.562,1.2-2.459,2.459-3.279,2.382a3.357,3.357,0,0,1-2.228-2.2c-.154-.538,1.178-2.049,1.9-2.1C19.405,339.17,20.378,340.169,22.095,341.142Z" transform="translate(39.175 -339.219)" fill="#f8f8f8"/>
      <path id="Path_27120" data-name="Path 27120" d="M55.907,347.712c-1.793,1.05-2.869,2.152-3.868,2.075-.82-.077-2.28-1.793-2.1-2.331a4.013,4.013,0,0,1,2.613-2.331C53.269,345,54.242,346.38,55.907,347.712Z" transform="translate(91.248 -330.011)" fill="#f8f8f8"/>
      <path id="Path_27121" data-name="Path 27121" d="M149.225,397.977c-1.614,1.153-2.485,2.228-3.407,2.254-.743.026-2.2-1.358-2.126-1.87a3.46,3.46,0,0,1,2.024-2.433C146.509,395.775,147.56,396.953,149.225,397.977Z" transform="translate(237.657 -250.692)" fill="#f8f8f8"/>
      <path id="Path_27122" data-name="Path 27122" d="M100.629,367.5c-1.1-1.332-2.382-2.254-2.254-2.869.2-.948,1.383-1.665,2.152-2.459.717.743,1.921,1.434,2.024,2.229C102.627,365.193,101.552,366.089,100.629,367.5Z" transform="translate(166.889 -303.383)" fill="#f8f8f8"/>
      <path id="Path_27123" data-name="Path 27123" d="M60.464,346.18c1.178,1.588,2.408,2.536,2.331,3.356a3.246,3.246,0,0,1-2.177,2.305,3.18,3.18,0,0,1-2.305-2.177C58.235,348.844,59.388,347.845,60.464,346.18Z" transform="translate(104.34 -328.35)" fill="#f8f8f8"/>
      <path id="Path_27124" data-name="Path 27124" d="M190.408,456.683c-1.588,1.178-2.536,2.408-3.33,2.331a3.456,3.456,0,0,1-2.2-2.254c-.128-.538,1.229-2.023,1.947-2.049C187.744,454.66,188.692,455.659,190.408,456.683Z" transform="translate(301.955 -158.887)" fill="#f8f8f8"/>
      <path id="Path_27125" data-name="Path 27125" d="M71.708,350.428c-1.409.948-2.459,2.126-3.048,1.947-.922-.282-1.537-1.537-2.28-2.357.794-.64,1.588-1.793,2.408-1.819C69.582,348.2,70.376,349.353,71.708,350.428Z" transform="translate(116.943 -325.196)" fill="#f8f8f8"/>
      <path id="Path_27126" data-name="Path 27126" d="M30.947,342.981c-1.742,1.178-2.715,2.357-3.714,2.357-.82,0-1.639-1.409-2.433-2.2.845-.871,1.588-2.229,2.587-2.485C28.1,340.471,29.18,341.777,30.947,342.981Z" transform="translate(52.018 -337.011)" fill="#f8f8f8"/>
    </g>
  </g>
</svg>
