<svg xmlns="http://www.w3.org/2000/svg" width="20.75" height="22.656" viewBox="0 0 20.75 22.656">
  <g id="support" transform="translate(-17.756)">
    <path id="Path_27288" data-name="Path 27288" d="M36.319,9.365h-.056V7.991a7.991,7.991,0,1,0-15.983,0V9.365h-.336a2.284,2.284,0,0,0-2.187,2.355v3.5A2.215,2.215,0,0,0,19.915,17.5h2.1a.533.533,0,0,0,.507-.557q0-.016,0-.032v-6.87c0-.336-.2-.673-.5-.673H21.4V7.991a6.87,6.87,0,1,1,13.739,0V9.365h-.617c-.308,0-.5.336-.5.673v6.87a.533.533,0,0,0,.473.586l.032,0h.645l-.056.084a4.43,4.43,0,0,1-3.561,1.766,2.776,2.776,0,0,0-5.5.533,2.8,2.8,0,0,0,2.8,2.776,2.888,2.888,0,0,0,2.019-.869,2.468,2.468,0,0,0,.673-1.346,5.552,5.552,0,0,0,4.458-2.215l.533-.785a1.909,1.909,0,0,0,1.963-1.935V12c0-1.206-.9-2.636-2.187-2.636ZM21.4,16.375H19.944a1.094,1.094,0,0,1-1.067-1.12c0-.01,0-.02,0-.03v-3.5a1.163,1.163,0,0,1,1.066-1.234H21.4ZM30.067,21a1.654,1.654,0,0,1-1.206.533,1.71,1.71,0,0,1-1.682-1.654,1.654,1.654,0,0,1,3.309,0h0A1.486,1.486,0,0,1,30.067,21Zm7.318-5.5c0,.757-.729.869-1.065.869H35.142V10.487h1.178c.617,0,1.065.869,1.065,1.514Z" fill="#364854"/>
  </g>
</svg>
