<svg xmlns="http://www.w3.org/2000/svg" width="158.684" height="102" viewBox="0 0 158.684 102">
  <g id="Group_28960" data-name="Group 28960" transform="translate(-63.418 -87.054)">
    <g id="Layer_1" data-name="Layer 1" transform="translate(63.418 162.925)">
      <path id="Path_27270" data-name="Path 27270" d="M70.993,332.432a13.024,13.024,0,0,1-4.4-.773,11.8,11.8,0,0,1-2.043-.977,2.054,2.054,0,0,1-.511-3.072,2.114,2.114,0,0,1,2.761-.446,10.868,10.868,0,0,0,1.379.769,6.9,6.9,0,0,0,2.913.61,3.334,3.334,0,0,0,1.856-.434,1.457,1.457,0,0,0,.664-1.287v-.055a1.8,1.8,0,0,0-.136-.745,1.691,1.691,0,0,0-.528-.556,6.467,6.467,0,0,0-1.138-.5,14.342,14.342,0,0,0-1.64-.5l-.271-.081a20.461,20.461,0,0,1-2.669-.8,6.974,6.974,0,0,1-2.06-1.111,4.579,4.579,0,0,1-1.3-1.613,5.7,5.7,0,0,1-.447-2.384v-.055a5.753,5.753,0,0,1,.474-2.358,5.287,5.287,0,0,1,1.423-1.857,6.817,6.817,0,0,1,2.209-1.233,9.2,9.2,0,0,1,2.8-.406,11.856,11.856,0,0,1,3.971.637,11.48,11.48,0,0,1,1.4.608,2.08,2.08,0,1,1-1.951,3.673,11.8,11.8,0,0,0-1.119-.541,6.06,6.06,0,0,0-2.358-.5,2.583,2.583,0,0,0-1.667.448,1.351,1.351,0,0,0-.583,1.138v.055a1.461,1.461,0,0,0,.2.813,1.485,1.485,0,0,0,.583.583,6.444,6.444,0,0,0,1.219.5q.529.163,1.247.352l.745.2a19.6,19.6,0,0,1,2.643.881,8.037,8.037,0,0,1,1.965,1.166,4.418,4.418,0,0,1,1.22,1.612,5.436,5.436,0,0,1,.393,2.168v.054a5.8,5.8,0,0,1-.529,2.521,5.05,5.05,0,0,1-1.463,1.884,6.794,6.794,0,0,1-2.3,1.192,10.019,10.019,0,0,1-2.954.42" transform="translate(-63.418 -306.41)" fill="#e40136"/>
      <path id="Path_27271" data-name="Path 27271" d="M114.3,325.168l-7.52-11.857h5.433l4.472,7.52,4.553-7.52h5.3l-7.52,11.776v7.819H114.3Z" transform="translate(-91.01 -306.884)" fill="#e40136"/>
      <path id="Path_27272" data-name="Path 27272" d="M172.072,333.061h-4.906l-5.664-13.93-4.079,10.027h2.344a1.951,1.951,0,0,1,0,3.9h-8.727l8.347-19.676H163.7Z" transform="translate(-119.17 -306.931)" fill="#e40136"/>
      <path id="Path_27273" data-name="Path 27273" d="M232.858,332.906h-5.407l-4.745-6.968a2.035,2.035,0,0,1,1.682-3.181q2.914,0,3.063-2.669,0-2.711-3.144-2.751h-4.024v15.57h-4.716V313.311h9.106a7.957,7.957,0,0,1,5.881,2.06,6.044,6.044,0,0,1,1.667,4.431q0,4.8-4.133,6.112Z" transform="translate(-160.225 -306.884)" fill="#e40136"/>
      <path id="Path_27274" data-name="Path 27274" d="M290.842,333.061h-4.906l-5.664-13.93-4.079,10.027h2.344a1.951,1.951,0,1,1,0,3.9h-8.727l8.347-19.676h4.309Z" transform="translate(-194.739 -306.931)" fill="#e40136"/>
      <path id="Path_27275" data-name="Path 27275" d="M350.673,333.112h-4.715l.106-8.534-7.518-.04v8.574h-4.689v-19.54h4.689v6.245l7.412,0v-6.247h4.715Z" transform="translate(-235.489 -307.05)" fill="#e40136"/>
      <text id="app" transform="translate(120.684 21)" fill="#e40136" font-size="21" font-family="Rockwell"><tspan x="0" y="0">app</tspan></text>
    </g>
    <g id="Layer_3" data-name="Layer 3" transform="translate(82.099 87.054)">
      <path id="Path_27276" data-name="Path 27276" d="M393.267,242.541l-.151-.092.159.083Z" transform="translate(-291.875 -185.927)" fill="#203141"/>
      <path id="Path_27277" data-name="Path 27277" d="M334.722,121.509c.575-8,4.116-25,6.781-32.535a2.422,2.422,0,0,1,2.315-1.621c2.031.025,4.092.07,6.144-.051,1.956-.116,2.591.827,2.944,2.52,1,4.8,2.163,9.567,3.139,14.372.3,1.477.869,2.071,2.426,1.992,2.454-.125,4.921-.049,7.382-.023,2.353.025,3.582,1.269,3.608,3.6.04,3.691.007,7.384.008,11.076a2.915,2.915,0,0,1-3.09,3.212c-9.711.077-19.422.047-29.239.041a2.418,2.418,0,0,1-2.418-2.581" transform="translate(-254.717 -87.206)" fill="#e40136"/>
      <path id="Path_27278" data-name="Path 27278" d="M182.957,217.644c7.918-.442,11.955-4.782,13.133-14.3a1.108,1.108,0,0,1,1.982-.541.691.691,0,0,1,.113.266c1.679,9.333,8.541,12.751,16.7,13.859,6.405.87,12.968.636,19.463.772,4.105.086,8.214.027,12.3.027,1.494,0,1.418.693.785.86-19.453,5.117-58.635,7.78-65.171.975a1.119,1.119,0,0,1,.694-1.921" transform="translate(-157.504 -160.42)" fill="#e40136"/>
      <path id="Path_27279" data-name="Path 27279" d="M161.967,88.816c-2.3,11.2-4.62,22.45-7,34.032a1.435,1.435,0,0,1-1.45,1.158,4.762,4.762,0,0,1-3.5-2.055,13.23,13.23,0,0,0-20.5.235,4.409,4.409,0,0,1-4,1.8c-3.494-.1-6.994-.031-10.682-.031a22.09,22.09,0,0,1,2.586-12.652,6.275,6.275,0,0,1,3.858-2.333c5.054-1.1,10.191-1.807,15.253-2.872a8.213,8.213,0,0,0,3.979-2.046,175.315,175.315,0,0,0,12.22-13.117c2.34-2.909,4.925-4.083,7.94-3.855a1.445,1.445,0,0,1,1.295,1.734" transform="translate(-114.778 -87.054)" fill="#e40136"/>
      <path id="Path_27280" data-name="Path 27280" d="M159.685,191.993a8.723,8.723,0,0,1,8.805-8.85,8.844,8.844,0,0,1,8.762,8.967,9.045,9.045,0,0,1-8.729,8.8,8.94,8.94,0,0,1-8.839-8.919" transform="translate(-143.351 -148.192)" fill="#e40136"/>
      <path id="Path_27281" data-name="Path 27281" d="M335.151,201.329h16.37a1.35,1.35,0,0,1,1.353,1.358c-.077,6.448-7.66,11.823-14.905,9.149a4.787,4.787,0,0,1-2.392-2.637,60.281,60.281,0,0,1-1.734-6.19,1.351,1.351,0,0,1,1.308-1.68" transform="translate(-254.136 -159.764)" fill="#e40136"/>
      <path id="Path_27282" data-name="Path 27282" d="M268.357,184.439l-.154-.085.153.086Z" transform="translate(-212.397 -148.963)" fill="#1c2d3c"/>
      <path id="Path_27283" data-name="Path 27283" d="M271.76,116.981h-8.472a.855.855,0,0,1-.855-.856V115.8a.855.855,0,0,1,.855-.855h8.472a.855.855,0,0,1,.855.855v.326a.855.855,0,0,1-.855.856" transform="translate(-208.725 -104.8)" fill="#e40136"/>
      <path id="Path_27284" data-name="Path 27284" d="M270.69,131.639h-8.473a.855.855,0,0,1-.855-.855v-.326a.855.855,0,0,1,.855-.855h8.473a.855.855,0,0,1,.855.855v.326a.855.855,0,0,1-.855.855" transform="translate(-208.044 -114.126)" fill="#e40136"/>
      <path id="Path_27285" data-name="Path 27285" d="M277.13,101.4H264.148a1.056,1.056,0,0,1-1.057-1.057v-.4a1.057,1.057,0,0,1,1.057-1.057H277.13a1.057,1.057,0,0,1,1.057,1.057v.4a1.056,1.056,0,0,1-1.057,1.057" transform="translate(-209.145 -94.583)" fill="#e40136"/>
      <path id="Path_27286" data-name="Path 27286" d="M319.091,102.654h-2.362a.855.855,0,0,1-.855-.855v-.326a.855.855,0,0,1,.855-.855h2.362a.855.855,0,0,1,.855.855v.326a.855.855,0,0,1-.855.855" transform="translate(-242.728 -95.684)" fill="#e40136"/>
      <path id="Path_27287" data-name="Path 27287" d="M255.818,161.52c-2.518-4.025-5.284-7.849-8.023-11.648a1.911,1.911,0,0,1,.182-2.452l.206-.211a1.912,1.912,0,0,1,2.463-.234L254.977,150a1.925,1.925,0,0,0,2.6-.368l.012-.013a77.218,77.218,0,0,1,12.024-12.132c1-.79,2.056-1.5,3.091-2.246a.293.293,0,0,1,.088-.02,1.8,1.8,0,0,1,1.536,3.015c-2.264,2.433-5.265,5.75-6.959,8.015-3.12,4.172-8.205,12.255-10.089,15.279a.859.859,0,0,1-1.461-.007" transform="translate(-199.183 -117.688)" fill="#e40136"/>
    </g>
  </g>
</svg>
